<svg xmlns="http://www.w3.org/2000/svg" xmlns:xlink="http://www.w3.org/1999/xlink" viewBox="0 0 300 300" shape-rendering="geometricPrecision" text-rendering="geometricPrecision">
<g transform-origin="20 20" transform="rotate(280)"><circle class="transformation" cx="20" cy="20" r="5"/></g>
    <g transform-origin="35 20" transform="rotate(47)"><circle class="transformation" cx="35" cy="20" r="5"/></g>
    <g transform-origin="50 20" transform="rotate(283)"><circle class="transformation" cx="50" cy="20" r="5"/></g>
    <g transform-origin="65 20" transform="rotate(186)"><circle class="transformation" cx="65" cy="20" r="5"/></g>
    <g transform-origin="80 20" transform="rotate(31)"><circle class="transformation" cx="80" cy="20" r="5"/></g>
    <g transform-origin="95 20" transform="rotate(37)"><circle class="transformation" cx="95" cy="20" r="5"/></g>
    <g transform-origin="110 20" transform="rotate(244)"><circle class="transformation" cx="110" cy="20" r="5"/></g>
    <g transform-origin="125 20" transform="rotate(250)"><circle class="transformation" cx="125" cy="20" r="5"/></g>
    <g transform-origin="140 20" transform="rotate(5)"><circle class="transformation" cx="140" cy="20" r="5"/></g>
    <g transform-origin="155 20" transform="rotate(178)"><circle class="transformation" cx="155" cy="20" r="5"/></g>
    <g transform-origin="170 20" transform="rotate(133)"><circle class="transformation" cx="170" cy="20" r="5"/></g>
    <g transform-origin="185 20" transform="rotate(138)"><circle class="transformation" cx="185" cy="20" r="5"/></g>
    <g transform-origin="200 20" transform="rotate(229)"><circle class="transformation" cx="200" cy="20" r="5"/></g>
    <g transform-origin="215 20" transform="rotate(221)"><circle class="transformation" cx="215" cy="20" r="5"/></g>
    <g transform-origin="230 20" transform="rotate(194)"><circle class="transformation" cx="230" cy="20" r="5"/></g>
    <g transform-origin="245 20" transform="rotate(360)"><circle class="transformation" cx="245" cy="20" r="5"/></g>
    <g transform-origin="260 20" transform="rotate(72)"><circle class="transformation" cx="260" cy="20" r="5"/></g>
    <g transform-origin="275 20" transform="rotate(171)"><circle class="transformation" cx="275" cy="20" r="5"/></g>
    <g transform-origin="20 35" transform="rotate(250)"><circle class="transformation" cx="20" cy="35" r="5"/></g>
    <g transform-origin="35 35" transform="rotate(334)"><circle class="transformation" cx="35" cy="35" r="5"/></g>
    <g transform-origin="50 35" transform="rotate(136)"><circle class="transformation" cx="50" cy="35" r="5"/></g>
    <g transform-origin="65 35" transform="rotate(312)"><circle class="transformation" cx="65" cy="35" r="5"/></g>
    <g transform-origin="80 35" transform="rotate(26)"><circle class="transformation" cx="80" cy="35" r="5"/></g>
    <g transform-origin="95 35" transform="rotate(34)"><circle class="transformation" cx="95" cy="35" r="5"/></g>
    <g transform-origin="110 35" transform="rotate(144)"><circle class="transformation" cx="110" cy="35" r="5"/></g>
    <g transform-origin="125 35" transform="rotate(48)"><circle class="transformation" cx="125" cy="35" r="5"/></g>
    <g transform-origin="140 35" transform="rotate(178)"><circle class="transformation" cx="140" cy="35" r="5"/></g>
    <g transform-origin="155 35" transform="rotate(181)"><circle class="transformation" cx="155" cy="35" r="5"/></g>
    <g transform-origin="170 35" transform="rotate(357)"><circle class="transformation" cx="170" cy="35" r="5"/></g>
    <g transform-origin="185 35" transform="rotate(83)"><circle class="transformation" cx="185" cy="35" r="5"/></g>
    <g transform-origin="200 35" transform="rotate(111)"><circle class="transformation" cx="200" cy="35" r="5"/></g>
    <g transform-origin="215 35" transform="rotate(19)"><circle class="transformation" cx="215" cy="35" r="5"/></g>
    <g transform-origin="230 35" transform="rotate(6)"><circle class="transformation" cx="230" cy="35" r="5"/></g>
    <g transform-origin="245 35" transform="rotate(240)"><circle class="transformation" cx="245" cy="35" r="5"/></g>
    <g transform-origin="260 35" transform="rotate(257)"><circle class="transformation" cx="260" cy="35" r="5"/></g>
    <g transform-origin="275 35" transform="rotate(0)"><circle class="transformation" cx="275" cy="35" r="5"/></g>
    <g transform-origin="20 50" transform="rotate(331)"><circle class="transformation" cx="20" cy="50" r="5"/></g>
    <g transform-origin="35 50" transform="rotate(231)"><circle class="transformation" cx="35" cy="50" r="5"/></g>
    <g transform-origin="50 50" transform="rotate(329)"><circle class="transformation" cx="50" cy="50" r="5"/></g>
    <g transform-origin="65 50" transform="rotate(23)"><circle class="transformation" cx="65" cy="50" r="5"/></g>
    <g transform-origin="80 50" transform="rotate(141)"><circle class="transformation" cx="80" cy="50" r="5"/></g>
    <g transform-origin="95 50" transform="rotate(4)"><circle class="transformation" cx="95" cy="50" r="5"/></g>
    <g transform-origin="110 50" transform="rotate(167)"><circle class="transformation" cx="110" cy="50" r="5"/></g>
    <g transform-origin="125 50" transform="rotate(34)"><circle class="transformation" cx="125" cy="50" r="5"/></g>
    <g transform-origin="140 50" transform="rotate(293)"><circle class="transformation" cx="140" cy="50" r="5"/></g>
    <g transform-origin="155 50" transform="rotate(273)"><circle class="transformation" cx="155" cy="50" r="5"/></g>
    <g transform-origin="170 50" transform="rotate(330)"><circle class="transformation" cx="170" cy="50" r="5"/></g>
    <g transform-origin="185 50" transform="rotate(8)"><circle class="transformation" cx="185" cy="50" r="5"/></g>
    <g transform-origin="200 50" transform="rotate(225)"><circle class="transformation" cx="200" cy="50" r="5"/></g>
    <g transform-origin="215 50" transform="rotate(208)"><circle class="transformation" cx="215" cy="50" r="5"/></g>
    <g transform-origin="230 50" transform="rotate(199)"><circle class="transformation" cx="230" cy="50" r="5"/></g>
    <g transform-origin="245 50" transform="rotate(32)"><circle class="transformation" cx="245" cy="50" r="5"/></g>
    <g transform-origin="260 50" transform="rotate(70)"><circle class="transformation" cx="260" cy="50" r="5"/></g>
    <g transform-origin="275 50" transform="rotate(146)"><circle class="transformation" cx="275" cy="50" r="5"/></g>
    <g transform-origin="20 65" transform="rotate(293)"><circle class="transformation" cx="20" cy="65" r="5"/></g>
    <g transform-origin="35 65" transform="rotate(309)"><circle class="transformation" cx="35" cy="65" r="5"/></g>
    <g transform-origin="50 65" transform="rotate(117)"><circle class="transformation" cx="50" cy="65" r="5"/></g>
    <g transform-origin="65 65" transform="rotate(296)"><circle class="transformation" cx="65" cy="65" r="5"/></g>
    <g transform-origin="80 65" transform="rotate(359)"><circle class="transformation" cx="80" cy="65" r="5"/></g>
    <g transform-origin="95 65" transform="rotate(136)"><circle class="transformation" cx="95" cy="65" r="5"/></g>
    <g transform-origin="110 65" transform="rotate(319)"><circle class="transformation" cx="110" cy="65" r="5"/></g>
    <g transform-origin="125 65" transform="rotate(57)"><circle class="transformation" cx="125" cy="65" r="5"/></g>
    <g transform-origin="140 65" transform="rotate(51)"><circle class="transformation" cx="140" cy="65" r="5"/></g>
    <g transform-origin="155 65" transform="rotate(24)"><circle class="transformation" cx="155" cy="65" r="5"/></g>
    <g transform-origin="170 65" transform="rotate(334)"><circle class="transformation" cx="170" cy="65" r="5"/></g>
    <g transform-origin="185 65" transform="rotate(350)"><circle class="transformation" cx="185" cy="65" r="5"/></g>
    <g transform-origin="200 65" transform="rotate(127)"><circle class="transformation" cx="200" cy="65" r="5"/></g>
    <g transform-origin="215 65" transform="rotate(53)"><circle class="transformation" cx="215" cy="65" r="5"/></g>
    <g transform-origin="230 65" transform="rotate(352)"><circle class="transformation" cx="230" cy="65" r="5"/></g>
    <g transform-origin="245 65" transform="rotate(202)"><circle class="transformation" cx="245" cy="65" r="5"/></g>
    <g transform-origin="260 65" transform="rotate(305)"><circle class="transformation" cx="260" cy="65" r="5"/></g>
    <g transform-origin="275 65" transform="rotate(185)"><circle class="transformation" cx="275" cy="65" r="5"/></g>
    <g transform-origin="20 80" transform="rotate(28)"><circle class="transformation" cx="20" cy="80" r="5"/></g>
    <g transform-origin="35 80" transform="rotate(76)"><circle class="transformation" cx="35" cy="80" r="5"/></g>
    <g transform-origin="50 80" transform="rotate(26)"><circle class="transformation" cx="50" cy="80" r="5"/></g>
    <g transform-origin="65 80" transform="rotate(289)"><circle class="transformation" cx="65" cy="80" r="5"/></g>
    <g transform-origin="80 80" transform="rotate(9)"><circle class="transformation" cx="80" cy="80" r="5"/></g>
    <g transform-origin="95 80" transform="rotate(119)"><circle class="transformation" cx="95" cy="80" r="5"/></g>
    <g transform-origin="110 80" transform="rotate(187)"><circle class="transformation" cx="110" cy="80" r="5"/></g>
    <g transform-origin="125 80" transform="rotate(284)"><circle class="transformation" cx="125" cy="80" r="5"/></g>
    <g transform-origin="140 80" transform="rotate(43)"><circle class="transformation" cx="140" cy="80" r="5"/></g>
    <g transform-origin="155 80" transform="rotate(283)"><circle class="transformation" cx="155" cy="80" r="5"/></g>
    <g transform-origin="170 80" transform="rotate(156)"><circle class="transformation" cx="170" cy="80" r="5"/></g>
    <g transform-origin="185 80" transform="rotate(194)"><circle class="transformation" cx="185" cy="80" r="5"/></g>
    <g transform-origin="200 80" transform="rotate(22)"><circle class="transformation" cx="200" cy="80" r="5"/></g>
    <g transform-origin="215 80" transform="rotate(164)"><circle class="transformation" cx="215" cy="80" r="5"/></g>
    <g transform-origin="230 80" transform="rotate(205)"><circle class="transformation" cx="230" cy="80" r="5"/></g>
    <g transform-origin="245 80" transform="rotate(248)"><circle class="transformation" cx="245" cy="80" r="5"/></g>
    <g transform-origin="260 80" transform="rotate(71)"><circle class="transformation" cx="260" cy="80" r="5"/></g>
    <g transform-origin="275 80" transform="rotate(102)"><circle class="transformation" cx="275" cy="80" r="5"/></g>
    <g transform-origin="20 95" transform="rotate(20)"><circle class="transformation" cx="20" cy="95" r="5"/></g>
    <g transform-origin="35 95" transform="rotate(196)"><circle class="transformation" cx="35" cy="95" r="5"/></g>
    <g transform-origin="50 95" transform="rotate(213)"><circle class="transformation" cx="50" cy="95" r="5"/></g>
    <g transform-origin="65 95" transform="rotate(64)"><circle class="transformation" cx="65" cy="95" r="5"/></g>
    <g transform-origin="80 95" transform="rotate(98)"><circle class="transformation" cx="80" cy="95" r="5"/></g>
    <g transform-origin="95 95" transform="rotate(3)"><circle class="transformation" cx="95" cy="95" r="5"/></g>
    <g transform-origin="110 95" transform="rotate(240)"><circle class="transformation" cx="110" cy="95" r="5"/></g>
    <g transform-origin="125 95" transform="rotate(262)"><circle class="transformation" cx="125" cy="95" r="5"/></g>
    <g transform-origin="140 95" transform="rotate(334)"><circle class="transformation" cx="140" cy="95" r="5"/></g>
    <g transform-origin="155 95" transform="rotate(65)"><circle class="transformation" cx="155" cy="95" r="5"/></g>
    <g transform-origin="170 95" transform="rotate(117)"><circle class="transformation" cx="170" cy="95" r="5"/></g>
    <g transform-origin="185 95" transform="rotate(118)"><circle class="transformation" cx="185" cy="95" r="5"/></g>
    <g transform-origin="200 95" transform="rotate(173)"><circle class="transformation" cx="200" cy="95" r="5"/></g>
    <g transform-origin="215 95" transform="rotate(154)"><circle class="transformation" cx="215" cy="95" r="5"/></g>
    <g transform-origin="230 95" transform="rotate(287)"><circle class="transformation" cx="230" cy="95" r="5"/></g>
    <g transform-origin="245 95" transform="rotate(274)"><circle class="transformation" cx="245" cy="95" r="5"/></g>
    <g transform-origin="260 95" transform="rotate(69)"><circle class="transformation" cx="260" cy="95" r="5"/></g>
    <g transform-origin="275 95" transform="rotate(270)"><circle class="transformation" cx="275" cy="95" r="5"/></g>
    <g transform-origin="20 110" transform="rotate(204)"><circle class="transformation" cx="20" cy="110" r="5"/></g>
    <g transform-origin="35 110" transform="rotate(356)"><circle class="transformation" cx="35" cy="110" r="5"/></g>
    <g transform-origin="50 110" transform="rotate(321)"><circle class="transformation" cx="50" cy="110" r="5"/></g>
    <g transform-origin="65 110" transform="rotate(326)"><circle class="transformation" cx="65" cy="110" r="5"/></g>
    <g transform-origin="80 110" transform="rotate(39)"><circle class="transformation" cx="80" cy="110" r="5"/></g>
    <g transform-origin="95 110" transform="rotate(35)"><circle class="transformation" cx="95" cy="110" r="5"/></g>
    <g transform-origin="110 110" transform="rotate(249)"><circle class="transformation" cx="110" cy="110" r="5"/></g>
    <g transform-origin="125 110" transform="rotate(346)"><circle class="transformation" cx="125" cy="110" r="5"/></g>
    <g transform-origin="140 110" transform="rotate(187)"><circle class="transformation" cx="140" cy="110" r="5"/></g>
    <g transform-origin="155 110" transform="rotate(125)"><circle class="transformation" cx="155" cy="110" r="5"/></g>
    <g transform-origin="170 110" transform="rotate(307)"><circle class="transformation" cx="170" cy="110" r="5"/></g>
    <g transform-origin="185 110" transform="rotate(354)"><circle class="transformation" cx="185" cy="110" r="5"/></g>
    <g transform-origin="200 110" transform="rotate(130)"><circle class="transformation" cx="200" cy="110" r="5"/></g>
    <g transform-origin="215 110" transform="rotate(304)"><circle class="transformation" cx="215" cy="110" r="5"/></g>
    <g transform-origin="230 110" transform="rotate(114)"><circle class="transformation" cx="230" cy="110" r="5"/></g>
    <g transform-origin="245 110" transform="rotate(246)"><circle class="transformation" cx="245" cy="110" r="5"/></g>
    <g transform-origin="260 110" transform="rotate(124)"><circle class="transformation" cx="260" cy="110" r="5"/></g>
    <g transform-origin="275 110" transform="rotate(199)"><circle class="transformation" cx="275" cy="110" r="5"/></g>
    <g transform-origin="20 125" transform="rotate(39)"><circle class="transformation" cx="20" cy="125" r="5"/></g>
    <g transform-origin="35 125" transform="rotate(238)"><circle class="transformation" cx="35" cy="125" r="5"/></g>
    <g transform-origin="50 125" transform="rotate(95)"><circle class="transformation" cx="50" cy="125" r="5"/></g>
    <g transform-origin="65 125" transform="rotate(35)"><circle class="transformation" cx="65" cy="125" r="5"/></g>
    <g transform-origin="80 125" transform="rotate(179)"><circle class="transformation" cx="80" cy="125" r="5"/></g>
    <g transform-origin="95 125" transform="rotate(56)"><circle class="transformation" cx="95" cy="125" r="5"/></g>
    <g transform-origin="110 125" transform="rotate(317)"><circle class="transformation" cx="110" cy="125" r="5"/></g>
    <g transform-origin="125 125" transform="rotate(65)"><circle class="transformation" cx="125" cy="125" r="5"/></g>
    <g transform-origin="140 125" transform="rotate(47)"><circle class="transformation" cx="140" cy="125" r="5"/></g>
    <g transform-origin="155 125" transform="rotate(343)"><circle class="transformation" cx="155" cy="125" r="5"/></g>
    <g transform-origin="170 125" transform="rotate(331)"><circle class="transformation" cx="170" cy="125" r="5"/></g>
    <g transform-origin="185 125" transform="rotate(140)"><circle class="transformation" cx="185" cy="125" r="5"/></g>
    <g transform-origin="200 125" transform="rotate(206)"><circle class="transformation" cx="200" cy="125" r="5"/></g>
    <g transform-origin="215 125" transform="rotate(36)"><circle class="transformation" cx="215" cy="125" r="5"/></g>
    <g transform-origin="230 125" transform="rotate(111)"><circle class="transformation" cx="230" cy="125" r="5"/></g>
    <g transform-origin="245 125" transform="rotate(343)"><circle class="transformation" cx="245" cy="125" r="5"/></g>
    <g transform-origin="260 125" transform="rotate(63)"><circle class="transformation" cx="260" cy="125" r="5"/></g>
    <g transform-origin="275 125" transform="rotate(327)"><circle class="transformation" cx="275" cy="125" r="5"/></g>
    <g transform-origin="20 140" transform="rotate(194)"><circle class="transformation" cx="20" cy="140" r="5"/></g>
    <g transform-origin="35 140" transform="rotate(353)"><circle class="transformation" cx="35" cy="140" r="5"/></g>
    <g transform-origin="50 140" transform="rotate(11)"><circle class="transformation" cx="50" cy="140" r="5"/></g>
    <g transform-origin="65 140" transform="rotate(216)"><circle class="transformation" cx="65" cy="140" r="5"/></g>
    <g transform-origin="80 140" transform="rotate(320)"><circle class="transformation" cx="80" cy="140" r="5"/></g>
    <g transform-origin="95 140" transform="rotate(184)"><circle class="transformation" cx="95" cy="140" r="5"/></g>
    <g transform-origin="110 140" transform="rotate(278)"><circle class="transformation" cx="110" cy="140" r="5"/></g>
    <g transform-origin="125 140" transform="rotate(264)"><circle class="transformation" cx="125" cy="140" r="5"/></g>
    <g transform-origin="140 140" transform="rotate(310)"><circle class="transformation" cx="140" cy="140" r="5"/></g>
    <g transform-origin="155 140" transform="rotate(74)"><circle class="transformation" cx="155" cy="140" r="5"/></g>
    <g transform-origin="170 140" transform="rotate(29)"><circle class="transformation" cx="170" cy="140" r="5"/></g>
    <g transform-origin="185 140" transform="rotate(1)"><circle class="transformation" cx="185" cy="140" r="5"/></g>
    <g transform-origin="200 140" transform="rotate(174)"><circle class="transformation" cx="200" cy="140" r="5"/></g>
    <g transform-origin="215 140" transform="rotate(352)"><circle class="transformation" cx="215" cy="140" r="5"/></g>
    <g transform-origin="230 140" transform="rotate(4)"><circle class="transformation" cx="230" cy="140" r="5"/></g>
    <g transform-origin="245 140" transform="rotate(79)"><circle class="transformation" cx="245" cy="140" r="5"/></g>
    <g transform-origin="260 140" transform="rotate(209)"><circle class="transformation" cx="260" cy="140" r="5"/></g>
    <g transform-origin="275 140" transform="rotate(349)"><circle class="transformation" cx="275" cy="140" r="5"/></g>
    <g transform-origin="20 155" transform="rotate(101)"><circle class="transformation" cx="20" cy="155" r="5"/></g>
    <g transform-origin="35 155" transform="rotate(138)"><circle class="transformation" cx="35" cy="155" r="5"/></g>
    <g transform-origin="50 155" transform="rotate(343)"><circle class="transformation" cx="50" cy="155" r="5"/></g>
    <g transform-origin="65 155" transform="rotate(205)"><circle class="transformation" cx="65" cy="155" r="5"/></g>
    <g transform-origin="80 155" transform="rotate(87)"><circle class="transformation" cx="80" cy="155" r="5"/></g>
    <g transform-origin="95 155" transform="rotate(198)"><circle class="transformation" cx="95" cy="155" r="5"/></g>
    <g transform-origin="110 155" transform="rotate(180)"><circle class="transformation" cx="110" cy="155" r="5"/></g>
    <g transform-origin="125 155" transform="rotate(28)"><circle class="transformation" cx="125" cy="155" r="5"/></g>
    <g transform-origin="140 155" transform="rotate(245)"><circle class="transformation" cx="140" cy="155" r="5"/></g>
    <g transform-origin="155 155" transform="rotate(163)"><circle class="transformation" cx="155" cy="155" r="5"/></g>
    <g transform-origin="170 155" transform="rotate(106)"><circle class="transformation" cx="170" cy="155" r="5"/></g>
    <g transform-origin="185 155" transform="rotate(275)"><circle class="transformation" cx="185" cy="155" r="5"/></g>
    <g transform-origin="200 155" transform="rotate(133)"><circle class="transformation" cx="200" cy="155" r="5"/></g>
    <g transform-origin="215 155" transform="rotate(243)"><circle class="transformation" cx="215" cy="155" r="5"/></g>
    <g transform-origin="230 155" transform="rotate(173)"><circle class="transformation" cx="230" cy="155" r="5"/></g>
    <g transform-origin="245 155" transform="rotate(61)"><circle class="transformation" cx="245" cy="155" r="5"/></g>
    <g transform-origin="260 155" transform="rotate(138)"><circle class="transformation" cx="260" cy="155" r="5"/></g>
    <g transform-origin="275 155" transform="rotate(95)"><circle class="transformation" cx="275" cy="155" r="5"/></g>
    <g transform-origin="20 170" transform="rotate(109)"><circle class="transformation" cx="20" cy="170" r="5"/></g>
    <g transform-origin="35 170" transform="rotate(67)"><circle class="transformation" cx="35" cy="170" r="5"/></g>
    <g transform-origin="50 170" transform="rotate(133)"><circle class="transformation" cx="50" cy="170" r="5"/></g>
    <g transform-origin="65 170" transform="rotate(94)"><circle class="transformation" cx="65" cy="170" r="5"/></g>
    <g transform-origin="80 170" transform="rotate(35)"><circle class="transformation" cx="80" cy="170" r="5"/></g>
    <g transform-origin="95 170" transform="rotate(198)"><circle class="transformation" cx="95" cy="170" r="5"/></g>
    <g transform-origin="110 170" transform="rotate(2)"><circle class="transformation" cx="110" cy="170" r="5"/></g>
    <g transform-origin="125 170" transform="rotate(333)"><circle class="transformation" cx="125" cy="170" r="5"/></g>
    <g transform-origin="140 170" transform="rotate(47)"><circle class="transformation" cx="140" cy="170" r="5"/></g>
    <g transform-origin="155 170" transform="rotate(186)"><circle class="transformation" cx="155" cy="170" r="5"/></g>
    <g transform-origin="170 170" transform="rotate(72)"><circle class="transformation" cx="170" cy="170" r="5"/></g>
    <g transform-origin="185 170" transform="rotate(121)"><circle class="transformation" cx="185" cy="170" r="5"/></g>
    <g transform-origin="200 170" transform="rotate(163)"><circle class="transformation" cx="200" cy="170" r="5"/></g>
    <g transform-origin="215 170" transform="rotate(30)"><circle class="transformation" cx="215" cy="170" r="5"/></g>
    <g transform-origin="230 170" transform="rotate(163)"><circle class="transformation" cx="230" cy="170" r="5"/></g>
    <g transform-origin="245 170" transform="rotate(272)"><circle class="transformation" cx="245" cy="170" r="5"/></g>
    <g transform-origin="260 170" transform="rotate(87)"><circle class="transformation" cx="260" cy="170" r="5"/></g>
    <g transform-origin="275 170" transform="rotate(103)"><circle class="transformation" cx="275" cy="170" r="5"/></g>
    <g transform-origin="20 185" transform="rotate(348)"><circle class="transformation" cx="20" cy="185" r="5"/></g>
    <g transform-origin="35 185" transform="rotate(122)"><circle class="transformation" cx="35" cy="185" r="5"/></g>
    <g transform-origin="50 185" transform="rotate(154)"><circle class="transformation" cx="50" cy="185" r="5"/></g>
    <g transform-origin="65 185" transform="rotate(78)"><circle class="transformation" cx="65" cy="185" r="5"/></g>
    <g transform-origin="80 185" transform="rotate(187)"><circle class="transformation" cx="80" cy="185" r="5"/></g>
    <g transform-origin="95 185" transform="rotate(84)"><circle class="transformation" cx="95" cy="185" r="5"/></g>
    <g transform-origin="110 185" transform="rotate(129)"><circle class="transformation" cx="110" cy="185" r="5"/></g>
    <g transform-origin="125 185" transform="rotate(105)"><circle class="transformation" cx="125" cy="185" r="5"/></g>
    <g transform-origin="140 185" transform="rotate(233)"><circle class="transformation" cx="140" cy="185" r="5"/></g>
    <g transform-origin="155 185" transform="rotate(227)"><circle class="transformation" cx="155" cy="185" r="5"/></g>
    <g transform-origin="170 185" transform="rotate(337)"><circle class="transformation" cx="170" cy="185" r="5"/></g>
    <g transform-origin="185 185" transform="rotate(141)"><circle class="transformation" cx="185" cy="185" r="5"/></g>
    <g transform-origin="200 185" transform="rotate(254)"><circle class="transformation" cx="200" cy="185" r="5"/></g>
    <g transform-origin="215 185" transform="rotate(125)"><circle class="transformation" cx="215" cy="185" r="5"/></g>
    <g transform-origin="230 185" transform="rotate(335)"><circle class="transformation" cx="230" cy="185" r="5"/></g>
    <g transform-origin="245 185" transform="rotate(136)"><circle class="transformation" cx="245" cy="185" r="5"/></g>
    <g transform-origin="260 185" transform="rotate(105)"><circle class="transformation" cx="260" cy="185" r="5"/></g>
    <g transform-origin="275 185" transform="rotate(338)"><circle class="transformation" cx="275" cy="185" r="5"/></g>
    <g transform-origin="20 200" transform="rotate(89)"><circle class="transformation" cx="20" cy="200" r="5"/></g>
    <g transform-origin="35 200" transform="rotate(273)"><circle class="transformation" cx="35" cy="200" r="5"/></g>
    <g transform-origin="50 200" transform="rotate(153)"><circle class="transformation" cx="50" cy="200" r="5"/></g>
    <g transform-origin="65 200" transform="rotate(47)"><circle class="transformation" cx="65" cy="200" r="5"/></g>
    <g transform-origin="80 200" transform="rotate(224)"><circle class="transformation" cx="80" cy="200" r="5"/></g>
    <g transform-origin="95 200" transform="rotate(332)"><circle class="transformation" cx="95" cy="200" r="5"/></g>
    <g transform-origin="110 200" transform="rotate(205)"><circle class="transformation" cx="110" cy="200" r="5"/></g>
    <g transform-origin="125 200" transform="rotate(13)"><circle class="transformation" cx="125" cy="200" r="5"/></g>
    <g transform-origin="140 200" transform="rotate(174)"><circle class="transformation" cx="140" cy="200" r="5"/></g>
    <g transform-origin="155 200" transform="rotate(232)"><circle class="transformation" cx="155" cy="200" r="5"/></g>
    <g transform-origin="170 200" transform="rotate(185)"><circle class="transformation" cx="170" cy="200" r="5"/></g>
    <g transform-origin="185 200" transform="rotate(165)"><circle class="transformation" cx="185" cy="200" r="5"/></g>
    <g transform-origin="200 200" transform="rotate(235)"><circle class="transformation" cx="200" cy="200" r="5"/></g>
    <g transform-origin="215 200" transform="rotate(258)"><circle class="transformation" cx="215" cy="200" r="5"/></g>
    <g transform-origin="230 200" transform="rotate(3)"><circle class="transformation" cx="230" cy="200" r="5"/></g>
    <g transform-origin="245 200" transform="rotate(172)"><circle class="transformation" cx="245" cy="200" r="5"/></g>
    <g transform-origin="260 200" transform="rotate(243)"><circle class="transformation" cx="260" cy="200" r="5"/></g>
    <g transform-origin="275 200" transform="rotate(309)"><circle class="transformation" cx="275" cy="200" r="5"/></g>
    <g transform-origin="20 215" transform="rotate(129)"><circle class="transformation" cx="20" cy="215" r="5"/></g>
    <g transform-origin="35 215" transform="rotate(44)"><circle class="transformation" cx="35" cy="215" r="5"/></g>
    <g transform-origin="50 215" transform="rotate(125)"><circle class="transformation" cx="50" cy="215" r="5"/></g>
    <g transform-origin="65 215" transform="rotate(2)"><circle class="transformation" cx="65" cy="215" r="5"/></g>
    <g transform-origin="80 215" transform="rotate(206)"><circle class="transformation" cx="80" cy="215" r="5"/></g>
    <g transform-origin="95 215" transform="rotate(96)"><circle class="transformation" cx="95" cy="215" r="5"/></g>
    <g transform-origin="110 215" transform="rotate(25)"><circle class="transformation" cx="110" cy="215" r="5"/></g>
    <g transform-origin="125 215" transform="rotate(158)"><circle class="transformation" cx="125" cy="215" r="5"/></g>
    <g transform-origin="140 215" transform="rotate(242)"><circle class="transformation" cx="140" cy="215" r="5"/></g>
    <g transform-origin="155 215" transform="rotate(7)"><circle class="transformation" cx="155" cy="215" r="5"/></g>
    <g transform-origin="170 215" transform="rotate(111)"><circle class="transformation" cx="170" cy="215" r="5"/></g>
    <g transform-origin="185 215" transform="rotate(227)"><circle class="transformation" cx="185" cy="215" r="5"/></g>
    <g transform-origin="200 215" transform="rotate(56)"><circle class="transformation" cx="200" cy="215" r="5"/></g>
    <g transform-origin="215 215" transform="rotate(347)"><circle class="transformation" cx="215" cy="215" r="5"/></g>
    <g transform-origin="230 215" transform="rotate(278)"><circle class="transformation" cx="230" cy="215" r="5"/></g>
    <g transform-origin="245 215" transform="rotate(57)"><circle class="transformation" cx="245" cy="215" r="5"/></g>
    <g transform-origin="260 215" transform="rotate(332)"><circle class="transformation" cx="260" cy="215" r="5"/></g>
    <g transform-origin="275 215" transform="rotate(10)"><circle class="transformation" cx="275" cy="215" r="5"/></g>
    <g transform-origin="20 230" transform="rotate(356)"><circle class="transformation" cx="20" cy="230" r="5"/></g>
    <g transform-origin="35 230" transform="rotate(140)"><circle class="transformation" cx="35" cy="230" r="5"/></g>
    <g transform-origin="50 230" transform="rotate(45)"><circle class="transformation" cx="50" cy="230" r="5"/></g>
    <g transform-origin="65 230" transform="rotate(192)"><circle class="transformation" cx="65" cy="230" r="5"/></g>
    <g transform-origin="80 230" transform="rotate(325)"><circle class="transformation" cx="80" cy="230" r="5"/></g>
    <g transform-origin="95 230" transform="rotate(208)"><circle class="transformation" cx="95" cy="230" r="5"/></g>
    <g transform-origin="110 230" transform="rotate(9)"><circle class="transformation" cx="110" cy="230" r="5"/></g>
    <g transform-origin="125 230" transform="rotate(45)"><circle class="transformation" cx="125" cy="230" r="5"/></g>
    <g transform-origin="140 230" transform="rotate(76)"><circle class="transformation" cx="140" cy="230" r="5"/></g>
    <g transform-origin="155 230" transform="rotate(278)"><circle class="transformation" cx="155" cy="230" r="5"/></g>
    <g transform-origin="170 230" transform="rotate(189)"><circle class="transformation" cx="170" cy="230" r="5"/></g>
    <g transform-origin="185 230" transform="rotate(161)"><circle class="transformation" cx="185" cy="230" r="5"/></g>
    <g transform-origin="200 230" transform="rotate(7)"><circle class="transformation" cx="200" cy="230" r="5"/></g>
    <g transform-origin="215 230" transform="rotate(246)"><circle class="transformation" cx="215" cy="230" r="5"/></g>
    <g transform-origin="230 230" transform="rotate(43)"><circle class="transformation" cx="230" cy="230" r="5"/></g>
    <g transform-origin="245 230" transform="rotate(214)"><circle class="transformation" cx="245" cy="230" r="5"/></g>
    <g transform-origin="260 230" transform="rotate(356)"><circle class="transformation" cx="260" cy="230" r="5"/></g>
    <g transform-origin="275 230" transform="rotate(94)"><circle class="transformation" cx="275" cy="230" r="5"/></g>
    <g transform-origin="20 245" transform="rotate(63)"><circle class="transformation" cx="20" cy="245" r="5"/></g>
    <g transform-origin="35 245" transform="rotate(214)"><circle class="transformation" cx="35" cy="245" r="5"/></g>
    <g transform-origin="50 245" transform="rotate(300)"><circle class="transformation" cx="50" cy="245" r="5"/></g>
    <g transform-origin="65 245" transform="rotate(155)"><circle class="transformation" cx="65" cy="245" r="5"/></g>
    <g transform-origin="80 245" transform="rotate(83)"><circle class="transformation" cx="80" cy="245" r="5"/></g>
    <g transform-origin="95 245" transform="rotate(147)"><circle class="transformation" cx="95" cy="245" r="5"/></g>
    <g transform-origin="110 245" transform="rotate(64)"><circle class="transformation" cx="110" cy="245" r="5"/></g>
    <g transform-origin="125 245" transform="rotate(196)"><circle class="transformation" cx="125" cy="245" r="5"/></g>
    <g transform-origin="140 245" transform="rotate(94)"><circle class="transformation" cx="140" cy="245" r="5"/></g>
    <g transform-origin="155 245" transform="rotate(353)"><circle class="transformation" cx="155" cy="245" r="5"/></g>
    <g transform-origin="170 245" transform="rotate(294)"><circle class="transformation" cx="170" cy="245" r="5"/></g>
    <g transform-origin="185 245" transform="rotate(132)"><circle class="transformation" cx="185" cy="245" r="5"/></g>
    <g transform-origin="200 245" transform="rotate(7)"><circle class="transformation" cx="200" cy="245" r="5"/></g>
    <g transform-origin="215 245" transform="rotate(227)"><circle class="transformation" cx="215" cy="245" r="5"/></g>
    <g transform-origin="230 245" transform="rotate(288)"><circle class="transformation" cx="230" cy="245" r="5"/></g>
    <g transform-origin="245 245" transform="rotate(3)"><circle class="transformation" cx="245" cy="245" r="5"/></g>
    <g transform-origin="260 245" transform="rotate(155)"><circle class="transformation" cx="260" cy="245" r="5"/></g>
    <g transform-origin="275 245" transform="rotate(35)"><circle class="transformation" cx="275" cy="245" r="5"/></g>
    <g transform-origin="20 260" transform="rotate(317)"><circle class="transformation" cx="20" cy="260" r="5"/></g>
    <g transform-origin="35 260" transform="rotate(186)"><circle class="transformation" cx="35" cy="260" r="5"/></g>
    <g transform-origin="50 260" transform="rotate(7)"><circle class="transformation" cx="50" cy="260" r="5"/></g>
    <g transform-origin="65 260" transform="rotate(250)"><circle class="transformation" cx="65" cy="260" r="5"/></g>
    <g transform-origin="80 260" transform="rotate(287)"><circle class="transformation" cx="80" cy="260" r="5"/></g>
    <g transform-origin="95 260" transform="rotate(214)"><circle class="transformation" cx="95" cy="260" r="5"/></g>
    <g transform-origin="110 260" transform="rotate(47)"><circle class="transformation" cx="110" cy="260" r="5"/></g>
    <g transform-origin="125 260" transform="rotate(76)"><circle class="transformation" cx="125" cy="260" r="5"/></g>
    <g transform-origin="140 260" transform="rotate(14)"><circle class="transformation" cx="140" cy="260" r="5"/></g>
    <g transform-origin="155 260" transform="rotate(96)"><circle class="transformation" cx="155" cy="260" r="5"/></g>
    <g transform-origin="170 260" transform="rotate(231)"><circle class="transformation" cx="170" cy="260" r="5"/></g>
    <g transform-origin="185 260" transform="rotate(321)"><circle class="transformation" cx="185" cy="260" r="5"/></g>
    <g transform-origin="200 260" transform="rotate(150)"><circle class="transformation" cx="200" cy="260" r="5"/></g>
    <g transform-origin="215 260" transform="rotate(57)"><circle class="transformation" cx="215" cy="260" r="5"/></g>
    <g transform-origin="230 260" transform="rotate(89)"><circle class="transformation" cx="230" cy="260" r="5"/></g>
    <g transform-origin="245 260" transform="rotate(76)"><circle class="transformation" cx="245" cy="260" r="5"/></g>
    <g transform-origin="260 260" transform="rotate(92)"><circle class="transformation" cx="260" cy="260" r="5"/></g>
    <g transform-origin="275 260" transform="rotate(188)"><circle class="transformation" cx="275" cy="260" r="5"/></g>
    <g transform-origin="20 275" transform="rotate(40)"><circle class="transformation" cx="20" cy="275" r="5"/></g>
    <g transform-origin="35 275" transform="rotate(303)"><circle class="transformation" cx="35" cy="275" r="5"/></g>
    <g transform-origin="50 275" transform="rotate(250)"><circle class="transformation" cx="50" cy="275" r="5"/></g>
    <g transform-origin="65 275" transform="rotate(30)"><circle class="transformation" cx="65" cy="275" r="5"/></g>
    <g transform-origin="80 275" transform="rotate(304)"><circle class="transformation" cx="80" cy="275" r="5"/></g>
    <g transform-origin="95 275" transform="rotate(30)"><circle class="transformation" cx="95" cy="275" r="5"/></g>
    <g transform-origin="110 275" transform="rotate(179)"><circle class="transformation" cx="110" cy="275" r="5"/></g>
    <g transform-origin="125 275" transform="rotate(25)"><circle class="transformation" cx="125" cy="275" r="5"/></g>
    <g transform-origin="140 275" transform="rotate(72)"><circle class="transformation" cx="140" cy="275" r="5"/></g>
    <g transform-origin="155 275" transform="rotate(183)"><circle class="transformation" cx="155" cy="275" r="5"/></g>
    <g transform-origin="170 275" transform="rotate(135)"><circle class="transformation" cx="170" cy="275" r="5"/></g>
    <g transform-origin="185 275" transform="rotate(343)"><circle class="transformation" cx="185" cy="275" r="5"/></g>
    <g transform-origin="200 275" transform="rotate(162)"><circle class="transformation" cx="200" cy="275" r="5"/></g>
    <g transform-origin="215 275" transform="rotate(95)"><circle class="transformation" cx="215" cy="275" r="5"/></g>
    <g transform-origin="230 275" transform="rotate(49)"><circle class="transformation" cx="230" cy="275" r="5"/></g>
    <g transform-origin="245 275" transform="rotate(311)"><circle class="transformation" cx="245" cy="275" r="5"/></g>
    <g transform-origin="260 275" transform="rotate(266)"><circle class="transformation" cx="260" cy="275" r="5"/></g>
    <g transform-origin="275 275" transform="rotate(342)"><circle class="transformation" cx="275" cy="275" r="5"/></g>

    <style>
        .transformation{
            animation: rotation 2s infinite;
        }

        @keyframes rotation{
            0% {
                transform-box: fill-box;
                transform-origin: center;
                transform: translate(0px, 0%);
            }
            20% {
                transform-box: fill-box;
                transform-origin: center;
                transform: translate(2px, 0%);
            }
            60% {
                transform-box: fill-box;
                transform-origin: center;
                transform: translate(-2px, 0%);
            }
        }
    </style>
</svg>