<svg xmlns="http://www.w3.org/2000/svg" xmlns:xlink="http://www.w3.org/1999/xlink" viewBox="0 0 300 300" shape-rendering="geometricPrecision" text-rendering="geometricPrecision">
    
    <g transform-origin="240 230" transform="rotate(226)"><g class="transformation"><rect x="240" y="230" width="53" height="53" fill="none"/><circle cx="293" cy="283" r="5"/></g></g>
<g transform-origin="148 153" transform="rotate(54)"><g class="transformation"><rect x="148" y="153" width="47" height="47" fill="none"/><circle cx="195" cy="200" r="5"/></g></g>
<g transform-origin="115 161" transform="rotate(212)"><g class="transformation"><rect x="115" y="161" width="41" height="41" fill="none"/><circle cx="156" cy="202" r="5"/></g></g>
<g transform-origin="214 196" transform="rotate(241)"><g class="transformation"><rect x="214" y="196" width="42" height="42" fill="none"/><circle cx="256" cy="238" r="5"/></g></g>
<g transform-origin="310 56" transform="rotate(131)"><g class="transformation"><rect x="310" y="56" width="56" height="56" fill="none"/><circle cx="366" cy="112" r="5"/></g></g>
<g transform-origin="27 193" transform="rotate(174)"><g class="transformation"><rect x="27" y="193" width="46" height="46" fill="none"/><circle cx="73" cy="239" r="5"/></g></g>
<g transform-origin="28 79" transform="rotate(45)"><g class="transformation"><rect x="28" y="79" width="51" height="51" fill="none"/><circle cx="79" cy="130" r="5"/></g></g>
<g transform-origin="284 179" transform="rotate(94)"><g class="transformation"><rect x="284" y="179" width="41" height="41" fill="none"/><circle cx="325" cy="220" r="5"/></g></g>
<g transform-origin="-12 186" transform="rotate(93)"><g class="transformation"><rect x="-12" y="186" width="47" height="47" fill="none"/><circle cx="35" cy="233" r="5"/></g></g>
<g transform-origin="-33 269" transform="rotate(306)"><g class="transformation"><rect x="-33" y="269" width="47" height="47" fill="none"/><circle cx="14" cy="316" r="5"/></g></g>
<g transform-origin="151 202" transform="rotate(147)"><g class="transformation"><rect x="151" y="202" width="41" height="41" fill="none"/><circle cx="192" cy="243" r="5"/></g></g>
<g transform-origin="160 35" transform="rotate(237)"><g class="transformation"><rect x="160" y="35" width="43" height="43" fill="none"/><circle cx="203" cy="78" r="5"/></g></g>
<g transform-origin="80 34" transform="rotate(188)"><g class="transformation"><rect x="80" y="34" width="60" height="60" fill="none"/><circle cx="140" cy="94" r="5"/></g></g>
<g transform-origin="148 26" transform="rotate(21)"><g class="transformation"><rect x="148" y="26" width="40" height="40" fill="none"/><circle cx="188" cy="66" r="5"/></g></g>
<g transform-origin="345 224" transform="rotate(232)"><g class="transformation"><rect x="345" y="224" width="52" height="52" fill="none"/><circle cx="397" cy="276" r="5"/></g></g>
<g transform-origin="186 45" transform="rotate(127)"><g class="transformation"><rect x="186" y="45" width="60" height="60" fill="none"/><circle cx="246" cy="105" r="5"/></g></g>
<g transform-origin="47 50" transform="rotate(221)"><g class="transformation"><rect x="47" y="50" width="49" height="49" fill="none"/><circle cx="96" cy="99" r="5"/></g></g>
<g transform-origin="96 20" transform="rotate(113)"><g class="transformation"><rect x="96" y="20" width="41" height="41" fill="none"/><circle cx="137" cy="61" r="5"/></g></g>
<g transform-origin="195 87" transform="rotate(165)"><g class="transformation"><rect x="195" y="87" width="49" height="49" fill="none"/><circle cx="244" cy="136" r="5"/></g></g>
<g transform-origin="-18 -26" transform="rotate(192)"><g class="transformation"><rect x="-18" y="-26" width="54" height="54" fill="none"/><circle cx="36" cy="28" r="5"/></g></g>
<g transform-origin="164 208" transform="rotate(310)"><g class="transformation"><rect x="164" y="208" width="54" height="54" fill="none"/><circle cx="218" cy="262" r="5"/></g></g>
<g transform-origin="256 107" transform="rotate(30)"><g class="transformation"><rect x="256" y="107" width="49" height="49" fill="none"/><circle cx="305" cy="156" r="5"/></g></g>
<g transform-origin="-33 246" transform="rotate(92)"><g class="transformation"><rect x="-33" y="246" width="58" height="58" fill="none"/><circle cx="25" cy="304" r="5"/></g></g>
<g transform-origin="255 245" transform="rotate(81)"><g class="transformation"><rect x="255" y="245" width="50" height="50" fill="none"/><circle cx="305" cy="295" r="5"/></g></g>
<g transform-origin="128 282" transform="rotate(216)"><g class="transformation"><rect x="128" y="282" width="45" height="45" fill="none"/><circle cx="173" cy="327" r="5"/></g></g>
<g transform-origin="327 60" transform="rotate(211)"><g class="transformation"><rect x="327" y="60" width="55" height="55" fill="none"/><circle cx="382" cy="115" r="5"/></g></g>
<g transform-origin="42 347" transform="rotate(100)"><g class="transformation"><rect x="42" y="347" width="51" height="51" fill="none"/><circle cx="93" cy="398" r="5"/></g></g>
<g transform-origin="240 93" transform="rotate(35)"><g class="transformation"><rect x="240" y="93" width="46" height="46" fill="none"/><circle cx="286" cy="139" r="5"/></g></g>
<g transform-origin="178 293" transform="rotate(10)"><g class="transformation"><rect x="178" y="293" width="49" height="49" fill="none"/><circle cx="227" cy="342" r="5"/></g></g>
<g transform-origin="225 119" transform="rotate(54)"><g class="transformation"><rect x="225" y="119" width="58" height="58" fill="none"/><circle cx="283" cy="177" r="5"/></g></g>
<g transform-origin="176 266" transform="rotate(24)"><g class="transformation"><rect x="176" y="266" width="54" height="54" fill="none"/><circle cx="230" cy="320" r="5"/></g></g>
<g transform-origin="194 331" transform="rotate(157)"><g class="transformation"><rect x="194" y="331" width="42" height="42" fill="none"/><circle cx="236" cy="373" r="5"/></g></g>
<g transform-origin="-40 -26" transform="rotate(92)"><g class="transformation"><rect x="-40" y="-26" width="43" height="43" fill="none"/><circle cx="3" cy="17" r="5"/></g></g>
<g transform-origin="246 73" transform="rotate(173)"><g class="transformation"><rect x="246" y="73" width="44" height="44" fill="none"/><circle cx="290" cy="117" r="5"/></g></g>
<g transform-origin="86 -6" transform="rotate(22)"><g class="transformation"><rect x="86" y="-6" width="54" height="54" fill="none"/><circle cx="140" cy="48" r="5"/></g></g>
<g transform-origin="335 -42" transform="rotate(68)"><g class="transformation"><rect x="335" y="-42" width="51" height="51" fill="none"/><circle cx="386" cy="9" r="5"/></g></g>
<g transform-origin="142 341" transform="rotate(186)"><g class="transformation"><rect x="142" y="341" width="44" height="44" fill="none"/><circle cx="186" cy="385" r="5"/></g></g>
<g transform-origin="-14 257" transform="rotate(87)"><g class="transformation"><rect x="-14" y="257" width="52" height="52" fill="none"/><circle cx="38" cy="309" r="5"/></g></g>
<g transform-origin="352 74" transform="rotate(314)"><g class="transformation"><rect x="352" y="74" width="60" height="60" fill="none"/><circle cx="412" cy="134" r="5"/></g></g>
<g transform-origin="64 70" transform="rotate(258)"><g class="transformation"><rect x="64" y="70" width="59" height="59" fill="none"/><circle cx="123" cy="129" r="5"/></g></g>
<g transform-origin="201 -4" transform="rotate(45)"><g class="transformation"><rect x="201" y="-4" width="49" height="49" fill="none"/><circle cx="250" cy="45" r="5"/></g></g>
<g transform-origin="112 162" transform="rotate(40)"><g class="transformation"><rect x="112" y="162" width="48" height="48" fill="none"/><circle cx="160" cy="210" r="5"/></g></g>
<g transform-origin="123 79" transform="rotate(173)"><g class="transformation"><rect x="123" y="79" width="41" height="41" fill="none"/><circle cx="164" cy="120" r="5"/></g></g>
<g transform-origin="279 -33" transform="rotate(74)"><g class="transformation"><rect x="279" y="-33" width="58" height="58" fill="none"/><circle cx="337" cy="25" r="5"/></g></g>
<g transform-origin="-47 120" transform="rotate(280)"><g class="transformation"><rect x="-47" y="120" width="60" height="60" fill="none"/><circle cx="13" cy="180" r="5"/></g></g>
<g transform-origin="180 266" transform="rotate(105)"><g class="transformation"><rect x="180" y="266" width="45" height="45" fill="none"/><circle cx="225" cy="311" r="5"/></g></g>
<g transform-origin="296 129" transform="rotate(119)"><g class="transformation"><rect x="296" y="129" width="53" height="53" fill="none"/><circle cx="349" cy="182" r="5"/></g></g>
<g transform-origin="105 115" transform="rotate(138)"><g class="transformation"><rect x="105" y="115" width="53" height="53" fill="none"/><circle cx="158" cy="168" r="5"/></g></g>
<g transform-origin="-32 42" transform="rotate(289)"><g class="transformation"><rect x="-32" y="42" width="44" height="44" fill="none"/><circle cx="12" cy="86" r="5"/></g></g>
<g transform-origin="157 -38" transform="rotate(166)"><g class="transformation"><rect x="157" y="-38" width="51" height="51" fill="none"/><circle cx="208" cy="13" r="5"/></g></g>
<g transform-origin="251 80" transform="rotate(167)"><g class="transformation"><rect x="251" y="80" width="51" height="51" fill="none"/><circle cx="302" cy="131" r="5"/></g></g>
<g transform-origin="332 166" transform="rotate(297)"><g class="transformation"><rect x="332" y="166" width="59" height="59" fill="none"/><circle cx="391" cy="225" r="5"/></g></g>
<g transform-origin="-4 287" transform="rotate(177)"><g class="transformation"><rect x="-4" y="287" width="54" height="54" fill="none"/><circle cx="50" cy="341" r="5"/></g></g>
<g transform-origin="274 145" transform="rotate(116)"><g class="transformation"><rect x="274" y="145" width="54" height="54" fill="none"/><circle cx="328" cy="199" r="5"/></g></g>
<g transform-origin="309 91" transform="rotate(112)"><g class="transformation"><rect x="309" y="91" width="41" height="41" fill="none"/><circle cx="350" cy="132" r="5"/></g></g>
<g transform-origin="189 158" transform="rotate(74)"><g class="transformation"><rect x="189" y="158" width="42" height="42" fill="none"/><circle cx="231" cy="200" r="5"/></g></g>
<g transform-origin="187 340" transform="rotate(136)"><g class="transformation"><rect x="187" y="340" width="51" height="51" fill="none"/><circle cx="238" cy="391" r="5"/></g></g>
<g transform-origin="262 35" transform="rotate(204)"><g class="transformation"><rect x="262" y="35" width="41" height="41" fill="none"/><circle cx="303" cy="76" r="5"/></g></g>
<g transform-origin="312 201" transform="rotate(20)"><g class="transformation"><rect x="312" y="201" width="45" height="45" fill="none"/><circle cx="357" cy="246" r="5"/></g></g>
<g transform-origin="188 308" transform="rotate(336)"><g class="transformation"><rect x="188" y="308" width="57" height="57" fill="none"/><circle cx="245" cy="365" r="5"/></g></g>
<g transform-origin="119 71" transform="rotate(321)"><g class="transformation"><rect x="119" y="71" width="53" height="53" fill="none"/><circle cx="172" cy="124" r="5"/></g></g>
<g transform-origin="93 35" transform="rotate(245)"><g class="transformation"><rect x="93" y="35" width="47" height="47" fill="none"/><circle cx="140" cy="82" r="5"/></g></g>
<g transform-origin="10 70" transform="rotate(274)"><g class="transformation"><rect x="10" y="70" width="58" height="58" fill="none"/><circle cx="68" cy="128" r="5"/></g></g>
<g transform-origin="18 260" transform="rotate(14)"><g class="transformation"><rect x="18" y="260" width="43" height="43" fill="none"/><circle cx="61" cy="303" r="5"/></g></g>
<g transform-origin="133 103" transform="rotate(22)"><g class="transformation"><rect x="133" y="103" width="48" height="48" fill="none"/><circle cx="181" cy="151" r="5"/></g></g>
<g transform-origin="104 179" transform="rotate(133)"><g class="transformation"><rect x="104" y="179" width="49" height="49" fill="none"/><circle cx="153" cy="228" r="5"/></g></g>
<g transform-origin="2 235" transform="rotate(322)"><g class="transformation"><rect x="2" y="235" width="42" height="42" fill="none"/><circle cx="44" cy="277" r="5"/></g></g>
<g transform-origin="48 121" transform="rotate(343)"><g class="transformation"><rect x="48" y="121" width="58" height="58" fill="none"/><circle cx="106" cy="179" r="5"/></g></g>
<g transform-origin="249 -27" transform="rotate(156)"><g class="transformation"><rect x="249" y="-27" width="46" height="46" fill="none"/><circle cx="295" cy="19" r="5"/></g></g>
<g transform-origin="43 85" transform="rotate(287)"><g class="transformation"><rect x="43" y="85" width="50" height="50" fill="none"/><circle cx="93" cy="135" r="5"/></g></g>
<g transform-origin="351 14" transform="rotate(149)"><g class="transformation"><rect x="351" y="14" width="55" height="55" fill="none"/><circle cx="406" cy="69" r="5"/></g></g>
<g transform-origin="-20 127" transform="rotate(266)"><g class="transformation"><rect x="-20" y="127" width="50" height="50" fill="none"/><circle cx="30" cy="177" r="5"/></g></g>
<g transform-origin="169 216" transform="rotate(53)"><g class="transformation"><rect x="169" y="216" width="46" height="46" fill="none"/><circle cx="215" cy="262" r="5"/></g></g>
<g transform-origin="9 319" transform="rotate(69)"><g class="transformation"><rect x="9" y="319" width="46" height="46" fill="none"/><circle cx="55" cy="365" r="5"/></g></g>
<g transform-origin="252 340" transform="rotate(294)"><g class="transformation"><rect x="252" y="340" width="58" height="58" fill="none"/><circle cx="310" cy="398" r="5"/></g></g>
<g transform-origin="287 74" transform="rotate(64)"><g class="transformation"><rect x="287" y="74" width="55" height="55" fill="none"/><circle cx="342" cy="129" r="5"/></g></g>
<g transform-origin="-20 93" transform="rotate(182)"><g class="transformation"><rect x="-20" y="93" width="52" height="52" fill="none"/><circle cx="32" cy="145" r="5"/></g></g>
<g transform-origin="328 36" transform="rotate(54)"><g class="transformation"><rect x="328" y="36" width="51" height="51" fill="none"/><circle cx="379" cy="87" r="5"/></g></g>
<g transform-origin="171 230" transform="rotate(210)"><g class="transformation"><rect x="171" y="230" width="54" height="54" fill="none"/><circle cx="225" cy="284" r="5"/></g></g>
<g transform-origin="5 337" transform="rotate(80)"><g class="transformation"><rect x="5" y="337" width="52" height="52" fill="none"/><circle cx="57" cy="389" r="5"/></g></g>
<g transform-origin="148 322" transform="rotate(70)"><g class="transformation"><rect x="148" y="322" width="45" height="45" fill="none"/><circle cx="193" cy="367" r="5"/></g></g>
<g transform-origin="55 -37" transform="rotate(324)"><g class="transformation"><rect x="55" y="-37" width="56" height="56" fill="none"/><circle cx="111" cy="19" r="5"/></g></g>
<g transform-origin="321 303" transform="rotate(354)"><g class="transformation"><rect x="321" y="303" width="47" height="47" fill="none"/><circle cx="368" cy="350" r="5"/></g></g>
<g transform-origin="354 294" transform="rotate(52)"><g class="transformation"><rect x="354" y="294" width="54" height="54" fill="none"/><circle cx="408" cy="348" r="5"/></g></g>
<g transform-origin="69 124" transform="rotate(193)"><g class="transformation"><rect x="69" y="124" width="45" height="45" fill="none"/><circle cx="114" cy="169" r="5"/></g></g>
<g transform-origin="81 -34" transform="rotate(222)"><g class="transformation"><rect x="81" y="-34" width="55" height="55" fill="none"/><circle cx="136" cy="21" r="5"/></g></g>
<g transform-origin="316 336" transform="rotate(18)"><g class="transformation"><rect x="316" y="336" width="52" height="52" fill="none"/><circle cx="368" cy="388" r="5"/></g></g>
<g transform-origin="127 42" transform="rotate(326)"><g class="transformation"><rect x="127" y="42" width="43" height="43" fill="none"/><circle cx="170" cy="85" r="5"/></g></g>
<g transform-origin="66 305" transform="rotate(204)"><g class="transformation"><rect x="66" y="305" width="46" height="46" fill="none"/><circle cx="112" cy="351" r="5"/></g></g>
<g transform-origin="270 174" transform="rotate(340)"><g class="transformation"><rect x="270" y="174" width="50" height="50" fill="none"/><circle cx="320" cy="224" r="5"/></g></g>
<g transform-origin="9 -35" transform="rotate(221)"><g class="transformation"><rect x="9" y="-35" width="57" height="57" fill="none"/><circle cx="66" cy="22" r="5"/></g></g>
<g transform-origin="25 262" transform="rotate(229)"><g class="transformation"><rect x="25" y="262" width="43" height="43" fill="none"/><circle cx="68" cy="305" r="5"/></g></g>
<g transform-origin="60 69" transform="rotate(146)"><g class="transformation"><rect x="60" y="69" width="42" height="42" fill="none"/><circle cx="102" cy="111" r="5"/></g></g>
<g transform-origin="285 69" transform="rotate(171)"><g class="transformation"><rect x="285" y="69" width="58" height="58" fill="none"/><circle cx="343" cy="127" r="5"/></g></g>
<g transform-origin="109 274" transform="rotate(198)"><g class="transformation"><rect x="109" y="274" width="50" height="50" fill="none"/><circle cx="159" cy="324" r="5"/></g></g>
<g transform-origin="340 245" transform="rotate(168)"><g class="transformation"><rect x="340" y="245" width="51" height="51" fill="none"/><circle cx="391" cy="296" r="5"/></g></g>
<g transform-origin="39 183" transform="rotate(128)"><g class="transformation"><rect x="39" y="183" width="60" height="60" fill="none"/><circle cx="99" cy="243" r="5"/></g></g>
<g transform-origin="65 176" transform="rotate(264)"><g class="transformation"><rect x="65" y="176" width="43" height="43" fill="none"/><circle cx="108" cy="219" r="5"/></g></g>
<g transform-origin="1 347" transform="rotate(169)"><g class="transformation"><rect x="1" y="347" width="47" height="47" fill="none"/><circle cx="48" cy="394" r="5"/></g></g>
<g transform-origin="-18 305" transform="rotate(56)"><g class="transformation"><rect x="-18" y="305" width="48" height="48" fill="none"/><circle cx="30" cy="353" r="5"/></g></g>
<g transform-origin="118 136" transform="rotate(151)"><g class="transformation"><rect x="118" y="136" width="58" height="58" fill="none"/><circle cx="176" cy="194" r="5"/></g></g>
<g transform-origin="-42 247" transform="rotate(211)"><g class="transformation"><rect x="-42" y="247" width="56" height="56" fill="none"/><circle cx="14" cy="303" r="5"/></g></g>
<g transform-origin="190 336" transform="rotate(291)"><g class="transformation"><rect x="190" y="336" width="40" height="40" fill="none"/><circle cx="230" cy="376" r="5"/></g></g>
<g transform-origin="285 43" transform="rotate(16)"><g class="transformation"><rect x="285" y="43" width="57" height="57" fill="none"/><circle cx="342" cy="100" r="5"/></g></g>
<g transform-origin="227 -2" transform="rotate(299)"><g class="transformation"><rect x="227" y="-2" width="41" height="41" fill="none"/><circle cx="268" cy="39" r="5"/></g></g>
<g transform-origin="172 221" transform="rotate(198)"><g class="transformation"><rect x="172" y="221" width="48" height="48" fill="none"/><circle cx="220" cy="269" r="5"/></g></g>
<g transform-origin="277 285" transform="rotate(45)"><g class="transformation"><rect x="277" y="285" width="44" height="44" fill="none"/><circle cx="321" cy="329" r="5"/></g></g>
<g transform-origin="102 205" transform="rotate(89)"><g class="transformation"><rect x="102" y="205" width="47" height="47" fill="none"/><circle cx="149" cy="252" r="5"/></g></g>
<g transform-origin="142 28" transform="rotate(155)"><g class="transformation"><rect x="142" y="28" width="60" height="60" fill="none"/><circle cx="202" cy="88" r="5"/></g></g>
<g transform-origin="-32 82" transform="rotate(243)"><g class="transformation"><rect x="-32" y="82" width="57" height="57" fill="none"/><circle cx="25" cy="139" r="5"/></g></g>
<g transform-origin="2 139" transform="rotate(67)"><g class="transformation"><rect x="2" y="139" width="48" height="48" fill="none"/><circle cx="50" cy="187" r="5"/></g></g>
<g transform-origin="219 125" transform="rotate(175)"><g class="transformation"><rect x="219" y="125" width="48" height="48" fill="none"/><circle cx="267" cy="173" r="5"/></g></g>
<g transform-origin="16 144" transform="rotate(281)"><g class="transformation"><rect x="16" y="144" width="41" height="41" fill="none"/><circle cx="57" cy="185" r="5"/></g></g>
<g transform-origin="84 275" transform="rotate(117)"><g class="transformation"><rect x="84" y="275" width="49" height="49" fill="none"/><circle cx="133" cy="324" r="5"/></g></g>
<g transform-origin="187 112" transform="rotate(343)"><g class="transformation"><rect x="187" y="112" width="56" height="56" fill="none"/><circle cx="243" cy="168" r="5"/></g></g>
<g transform-origin="53 -35" transform="rotate(232)"><g class="transformation"><rect x="53" y="-35" width="56" height="56" fill="none"/><circle cx="109" cy="21" r="5"/></g></g>
<g transform-origin="331 -45" transform="rotate(66)"><g class="transformation"><rect x="331" y="-45" width="49" height="49" fill="none"/><circle cx="380" cy="4" r="5"/></g></g>
<g transform-origin="-16 -16" transform="rotate(18)"><g class="transformation"><rect x="-16" y="-16" width="55" height="55" fill="none"/><circle cx="39" cy="39" r="5"/></g></g>
<g transform-origin="94 -37" transform="rotate(154)"><g class="transformation"><rect x="94" y="-37" width="52" height="52" fill="none"/><circle cx="146" cy="15" r="5"/></g></g>
<g transform-origin="306 208" transform="rotate(208)"><g class="transformation"><rect x="306" y="208" width="59" height="59" fill="none"/><circle cx="365" cy="267" r="5"/></g></g>
<g transform-origin="147 10" transform="rotate(196)"><g class="transformation"><rect x="147" y="10" width="60" height="60" fill="none"/><circle cx="207" cy="70" r="5"/></g></g>
<g transform-origin="7 66" transform="rotate(129)"><g class="transformation"><rect x="7" y="66" width="52" height="52" fill="none"/><circle cx="59" cy="118" r="5"/></g></g>
<g transform-origin="63 172" transform="rotate(12)"><g class="transformation"><rect x="63" y="172" width="46" height="46" fill="none"/><circle cx="109" cy="218" r="5"/></g></g>
<g transform-origin="300 1" transform="rotate(175)"><g class="transformation"><rect x="300" y="1" width="60" height="60" fill="none"/><circle cx="360" cy="61" r="5"/></g></g>
<g transform-origin="156 197" transform="rotate(133)"><g class="transformation"><rect x="156" y="197" width="45" height="45" fill="none"/><circle cx="201" cy="242" r="5"/></g></g>
<g transform-origin="282 -28" transform="rotate(313)"><g class="transformation"><rect x="282" y="-28" width="54" height="54" fill="none"/><circle cx="336" cy="26" r="5"/></g></g>
<g transform-origin="285 343" transform="rotate(212)"><g class="transformation"><rect x="285" y="343" width="57" height="57" fill="none"/><circle cx="342" cy="400" r="5"/></g></g>
<g transform-origin="93 198" transform="rotate(354)"><g class="transformation"><rect x="93" y="198" width="55" height="55" fill="none"/><circle cx="148" cy="253" r="5"/></g></g>
<g transform-origin="29 140" transform="rotate(300)"><g class="transformation"><rect x="29" y="140" width="47" height="47" fill="none"/><circle cx="76" cy="187" r="5"/></g></g>
<g transform-origin="80 208" transform="rotate(255)"><g class="transformation"><rect x="80" y="208" width="55" height="55" fill="none"/><circle cx="135" cy="263" r="5"/></g></g>
<g transform-origin="185 98" transform="rotate(335)"><g class="transformation"><rect x="185" y="98" width="44" height="44" fill="none"/><circle cx="229" cy="142" r="5"/></g></g>
<g transform-origin="336 21" transform="rotate(216)"><g class="transformation"><rect x="336" y="21" width="60" height="60" fill="none"/><circle cx="396" cy="81" r="5"/></g></g>
<g transform-origin="156 160" transform="rotate(244)"><g class="transformation"><rect x="156" y="160" width="41" height="41" fill="none"/><circle cx="197" cy="201" r="5"/></g></g>
<g transform-origin="127 218" transform="rotate(42)"><g class="transformation"><rect x="127" y="218" width="49" height="49" fill="none"/><circle cx="176" cy="267" r="5"/></g></g>
<g transform-origin="7 8" transform="rotate(124)"><g class="transformation"><rect x="7" y="8" width="49" height="49" fill="none"/><circle cx="56" cy="57" r="5"/></g></g>
<g transform-origin="75 71" transform="rotate(56)"><g class="transformation"><rect x="75" y="71" width="44" height="44" fill="none"/><circle cx="119" cy="115" r="5"/></g></g>
<g transform-origin="153 93" transform="rotate(278)"><g class="transformation"><rect x="153" y="93" width="44" height="44" fill="none"/><circle cx="197" cy="137" r="5"/></g></g>
<g transform-origin="57 -52" transform="rotate(20)"><g class="transformation"><rect x="57" y="-52" width="60" height="60" fill="none"/><circle cx="117" cy="8" r="5"/></g></g>
<g transform-origin="282 -8" transform="rotate(343)"><g class="transformation"><rect x="282" y="-8" width="45" height="45" fill="none"/><circle cx="327" cy="37" r="5"/></g></g>
<g transform-origin="173 21" transform="rotate(170)"><g class="transformation"><rect x="173" y="21" width="42" height="42" fill="none"/><circle cx="215" cy="63" r="5"/></g></g>
<g transform-origin="124 41" transform="rotate(85)"><g class="transformation"><rect x="124" y="41" width="41" height="41" fill="none"/><circle cx="165" cy="82" r="5"/></g></g>
<g transform-origin="157 -16" transform="rotate(54)"><g class="transformation"><rect x="157" y="-16" width="48" height="48" fill="none"/><circle cx="205" cy="32" r="5"/></g></g>
<g transform-origin="233 148" transform="rotate(124)"><g class="transformation"><rect x="233" y="148" width="44" height="44" fill="none"/><circle cx="277" cy="192" r="5"/></g></g>
<g transform-origin="307 40" transform="rotate(85)"><g class="transformation"><rect x="307" y="40" width="52" height="52" fill="none"/><circle cx="359" cy="92" r="5"/></g></g>
<g transform-origin="189 -25" transform="rotate(229)"><g class="transformation"><rect x="189" y="-25" width="56" height="56" fill="none"/><circle cx="245" cy="31" r="5"/></g></g>
<g transform-origin="134 249" transform="rotate(238)"><g class="transformation"><rect x="134" y="249" width="58" height="58" fill="none"/><circle cx="192" cy="307" r="5"/></g></g>
<g transform-origin="-56 4" transform="rotate(332)"><g class="transformation"><rect x="-56" y="4" width="59" height="59" fill="none"/><circle cx="3" cy="63" r="5"/></g></g>
<g transform-origin="108 124" transform="rotate(282)"><g class="transformation"><rect x="108" y="124" width="56" height="56" fill="none"/><circle cx="164" cy="180" r="5"/></g></g>
<g transform-origin="61 -23" transform="rotate(233)"><g class="transformation"><rect x="61" y="-23" width="54" height="54" fill="none"/><circle cx="115" cy="31" r="5"/></g></g>
<g transform-origin="-17 -11" transform="rotate(344)"><g class="transformation"><rect x="-17" y="-11" width="40" height="40" fill="none"/><circle cx="23" cy="29" r="5"/></g></g>
<g transform-origin="166 36" transform="rotate(326)"><g class="transformation"><rect x="166" y="36" width="52" height="52" fill="none"/><circle cx="218" cy="88" r="5"/></g></g>
<g transform-origin="259 43" transform="rotate(223)"><g class="transformation"><rect x="259" y="43" width="43" height="43" fill="none"/><circle cx="302" cy="86" r="5"/></g></g>
<g transform-origin="196 263" transform="rotate(165)"><g class="transformation"><rect x="196" y="263" width="49" height="49" fill="none"/><circle cx="245" cy="312" r="5"/></g></g>
<g transform-origin="23 358" transform="rotate(193)"><g class="transformation"><rect x="23" y="358" width="58" height="58" fill="none"/><circle cx="81" cy="416" r="5"/></g></g>
<g transform-origin="318 109" transform="rotate(182)"><g class="transformation"><rect x="318" y="109" width="41" height="41" fill="none"/><circle cx="359" cy="150" r="5"/></g></g>
<g transform-origin="308 -7" transform="rotate(276)"><g class="transformation"><rect x="308" y="-7" width="56" height="56" fill="none"/><circle cx="364" cy="49" r="5"/></g></g>
<g transform-origin="-28 127" transform="rotate(108)"><g class="transformation"><rect x="-28" y="127" width="42" height="42" fill="none"/><circle cx="14" cy="169" r="5"/></g></g>
<g transform-origin="254 205" transform="rotate(83)"><g class="transformation"><rect x="254" y="205" width="56" height="56" fill="none"/><circle cx="310" cy="261" r="5"/></g></g>
<g transform-origin="76 192" transform="rotate(202)"><g class="transformation"><rect x="76" y="192" width="43" height="43" fill="none"/><circle cx="119" cy="235" r="5"/></g></g>
<g transform-origin="226 328" transform="rotate(282)"><g class="transformation"><rect x="226" y="328" width="45" height="45" fill="none"/><circle cx="271" cy="373" r="5"/></g></g>
<g transform-origin="144 279" transform="rotate(215)"><g class="transformation"><rect x="144" y="279" width="41" height="41" fill="none"/><circle cx="185" cy="320" r="5"/></g></g>
<g transform-origin="295 187" transform="rotate(97)"><g class="transformation"><rect x="295" y="187" width="56" height="56" fill="none"/><circle cx="351" cy="243" r="5"/></g></g>
<g transform-origin="197 342" transform="rotate(357)"><g class="transformation"><rect x="197" y="342" width="59" height="59" fill="none"/><circle cx="256" cy="401" r="5"/></g></g>
<g transform-origin="251 294" transform="rotate(247)"><g class="transformation"><rect x="251" y="294" width="49" height="49" fill="none"/><circle cx="300" cy="343" r="5"/></g></g>
<g transform-origin="353 82" transform="rotate(13)"><g class="transformation"><rect x="353" y="82" width="54" height="54" fill="none"/><circle cx="407" cy="136" r="5"/></g></g>
<g transform-origin="28 10" transform="rotate(279)"><g class="transformation"><rect x="28" y="10" width="44" height="44" fill="none"/><circle cx="72" cy="54" r="5"/></g></g>
<g transform-origin="99 62" transform="rotate(220)"><g class="transformation"><rect x="99" y="62" width="44" height="44" fill="none"/><circle cx="143" cy="106" r="5"/></g></g>
<g transform-origin="33 243" transform="rotate(333)"><g class="transformation"><rect x="33" y="243" width="55" height="55" fill="none"/><circle cx="88" cy="298" r="5"/></g></g>
<g transform-origin="236 67" transform="rotate(150)"><g class="transformation"><rect x="236" y="67" width="53" height="53" fill="none"/><circle cx="289" cy="120" r="5"/></g></g>
<g transform-origin="248 271" transform="rotate(110)"><g class="transformation"><rect x="248" y="271" width="56" height="56" fill="none"/><circle cx="304" cy="327" r="5"/></g></g>
<g transform-origin="319 13" transform="rotate(38)"><g class="transformation"><rect x="319" y="13" width="42" height="42" fill="none"/><circle cx="361" cy="55" r="5"/></g></g>
<g transform-origin="46 225" transform="rotate(130)"><g class="transformation"><rect x="46" y="225" width="47" height="47" fill="none"/><circle cx="93" cy="272" r="5"/></g></g>
<g transform-origin="130 163" transform="rotate(61)"><g class="transformation"><rect x="130" y="163" width="41" height="41" fill="none"/><circle cx="171" cy="204" r="5"/></g></g>
<g transform-origin="-18 99" transform="rotate(155)"><g class="transformation"><rect x="-18" y="99" width="57" height="57" fill="none"/><circle cx="39" cy="156" r="5"/></g></g>
<g transform-origin="292 147" transform="rotate(249)"><g class="transformation"><rect x="292" y="147" width="58" height="58" fill="none"/><circle cx="350" cy="205" r="5"/></g></g>
<g transform-origin="244 -35" transform="rotate(101)"><g class="transformation"><rect x="244" y="-35" width="41" height="41" fill="none"/><circle cx="285" cy="6" r="5"/></g></g>
<g transform-origin="287 187" transform="rotate(341)"><g class="transformation"><rect x="287" y="187" width="60" height="60" fill="none"/><circle cx="347" cy="247" r="5"/></g></g>
<g transform-origin="168 62" transform="rotate(331)"><g class="transformation"><rect x="168" y="62" width="48" height="48" fill="none"/><circle cx="216" cy="110" r="5"/></g></g>
<g transform-origin="26 -33" transform="rotate(70)"><g class="transformation"><rect x="26" y="-33" width="58" height="58" fill="none"/><circle cx="84" cy="25" r="5"/></g></g>
<g transform-origin="230 290" transform="rotate(168)"><g class="transformation"><rect x="230" y="290" width="50" height="50" fill="none"/><circle cx="280" cy="340" r="5"/></g></g>
<g transform-origin="333 239" transform="rotate(212)"><g class="transformation"><rect x="333" y="239" width="50" height="50" fill="none"/><circle cx="383" cy="289" r="5"/></g></g>
<g transform-origin="301 275" transform="rotate(74)"><g class="transformation"><rect x="301" y="275" width="50" height="50" fill="none"/><circle cx="351" cy="325" r="5"/></g></g>
<g transform-origin="295 245" transform="rotate(231)"><g class="transformation"><rect x="295" y="245" width="55" height="55" fill="none"/><circle cx="350" cy="300" r="5"/></g></g>
<g transform-origin="-16 184" transform="rotate(92)"><g class="transformation"><rect x="-16" y="184" width="55" height="55" fill="none"/><circle cx="39" cy="239" r="5"/></g></g>
<g transform-origin="200 144" transform="rotate(76)"><g class="transformation"><rect x="200" y="144" width="60" height="60" fill="none"/><circle cx="260" cy="204" r="5"/></g></g>
<g transform-origin="91 111" transform="rotate(358)"><g class="transformation"><rect x="91" y="111" width="48" height="48" fill="none"/><circle cx="139" cy="159" r="5"/></g></g>
<g transform-origin="99 179" transform="rotate(250)"><g class="transformation"><rect x="99" y="179" width="52" height="52" fill="none"/><circle cx="151" cy="231" r="5"/></g></g>
<g transform-origin="38 146" transform="rotate(277)"><g class="transformation"><rect x="38" y="146" width="59" height="59" fill="none"/><circle cx="97" cy="205" r="5"/></g></g>
<g transform-origin="301 185" transform="rotate(234)"><g class="transformation"><rect x="301" y="185" width="49" height="49" fill="none"/><circle cx="350" cy="234" r="5"/></g></g>
<g transform-origin="23 221" transform="rotate(74)"><g class="transformation"><rect x="23" y="221" width="60" height="60" fill="none"/><circle cx="83" cy="281" r="5"/></g></g>
<g transform-origin="37 66" transform="rotate(89)"><g class="transformation"><rect x="37" y="66" width="60" height="60" fill="none"/><circle cx="97" cy="126" r="5"/></g></g>
<g transform-origin="211 82" transform="rotate(140)"><g class="transformation"><rect x="211" y="82" width="48" height="48" fill="none"/><circle cx="259" cy="130" r="5"/></g></g>
<g transform-origin="333 13" transform="rotate(149)"><g class="transformation"><rect x="333" y="13" width="48" height="48" fill="none"/><circle cx="381" cy="61" r="5"/></g></g>
<g transform-origin="150 160" transform="rotate(226)"><g class="transformation"><rect x="150" y="160" width="48" height="48" fill="none"/><circle cx="198" cy="208" r="5"/></g></g>
<g transform-origin="119 266" transform="rotate(214)"><g class="transformation"><rect x="119" y="266" width="56" height="56" fill="none"/><circle cx="175" cy="322" r="5"/></g></g>
<g transform-origin="161 106" transform="rotate(47)"><g class="transformation"><rect x="161" y="106" width="58" height="58" fill="none"/><circle cx="219" cy="164" r="5"/></g></g>
<g transform-origin="38 66" transform="rotate(257)"><g class="transformation"><rect x="38" y="66" width="42" height="42" fill="none"/><circle cx="80" cy="108" r="5"/></g></g>
<g transform-origin="111 47" transform="rotate(256)"><g class="transformation"><rect x="111" y="47" width="57" height="57" fill="none"/><circle cx="168" cy="104" r="5"/></g></g>
<g transform-origin="10 -57" transform="rotate(318)"><g class="transformation"><rect x="10" y="-57" width="59" height="59" fill="none"/><circle cx="69" cy="2" r="5"/></g></g>
<g transform-origin="288 -18" transform="rotate(239)"><g class="transformation"><rect x="288" y="-18" width="59" height="59" fill="none"/><circle cx="347" cy="41" r="5"/></g></g>
    <style>
        .transformation{
            animation: rotation linear 7s infinite;
        }

        @keyframes rotation{
            0% {
                transform-box: fill-box;
                /*transform-origin: center;*/
                transform: rotate(0deg);
            }
            100% {
                transform-box: fill-box;
                /*transform-origin: center;*/
                transform: rotate(360deg);
            }
        }
    </style>
</svg>