<svg xmlns="http://www.w3.org/2000/svg" xmlns:xlink="http://www.w3.org/1999/xlink" viewBox="0 0 300 300" shape-rendering="geometricPrecision" text-rendering="geometricPrecision">
    
    <g transform-origin="225 309" transform="rotate(115)"><g class="transformation"><rect x="225" y="309" width="41" height="41" fill="none"/><circle cx="266" cy="350" r="5"/></g></g>
<g transform-origin="353 243" transform="rotate(292)"><g class="transformation"><rect x="353" y="243" width="56" height="56" fill="none"/><circle cx="409" cy="299" r="5"/></g></g>
<g transform-origin="-35 57" transform="rotate(316)"><g class="transformation"><rect x="-35" y="57" width="40" height="40" fill="none"/><circle cx="5" cy="97" r="5"/></g></g>
<g transform-origin="106 148" transform="rotate(107)"><g class="transformation"><rect x="106" y="148" width="56" height="56" fill="none"/><circle cx="162" cy="204" r="5"/></g></g>
<g transform-origin="57 121" transform="rotate(20)"><g class="transformation"><rect x="57" y="121" width="41" height="41" fill="none"/><circle cx="98" cy="162" r="5"/></g></g>
<g transform-origin="72 81" transform="rotate(193)"><g class="transformation"><rect x="72" y="81" width="52" height="52" fill="none"/><circle cx="124" cy="133" r="5"/></g></g>
<g transform-origin="167 263" transform="rotate(212)"><g class="transformation"><rect x="167" y="263" width="40" height="40" fill="none"/><circle cx="207" cy="303" r="5"/></g></g>
<g transform-origin="26 290" transform="rotate(261)"><g class="transformation"><rect x="26" y="290" width="48" height="48" fill="none"/><circle cx="74" cy="338" r="5"/></g></g>
<g transform-origin="215 144" transform="rotate(21)"><g class="transformation"><rect x="215" y="144" width="53" height="53" fill="none"/><circle cx="268" cy="197" r="5"/></g></g>
<g transform-origin="-30 252" transform="rotate(151)"><g class="transformation"><rect x="-30" y="252" width="56" height="56" fill="none"/><circle cx="26" cy="308" r="5"/></g></g>
<g transform-origin="12 42" transform="rotate(158)"><g class="transformation"><rect x="12" y="42" width="42" height="42" fill="none"/><circle cx="54" cy="84" r="5"/></g></g>
<g transform-origin="-5 186" transform="rotate(13)"><g class="transformation"><rect x="-5" y="186" width="50" height="50" fill="none"/><circle cx="45" cy="236" r="5"/></g></g>
<g transform-origin="334 271" transform="rotate(320)"><g class="transformation"><rect x="334" y="271" width="47" height="47" fill="none"/><circle cx="381" cy="318" r="5"/></g></g>
<g transform-origin="233 -14" transform="rotate(315)"><g class="transformation"><rect x="233" y="-14" width="56" height="56" fill="none"/><circle cx="289" cy="42" r="5"/></g></g>
<g transform-origin="-46 248" transform="rotate(266)"><g class="transformation"><rect x="-46" y="248" width="55" height="55" fill="none"/><circle cx="9" cy="303" r="5"/></g></g>
<g transform-origin="316 289" transform="rotate(112)"><g class="transformation"><rect x="316" y="289" width="56" height="56" fill="none"/><circle cx="372" cy="345" r="5"/></g></g>
<g transform-origin="333 356" transform="rotate(180)"><g class="transformation"><rect x="333" y="356" width="56" height="56" fill="none"/><circle cx="389" cy="412" r="5"/></g></g>
<g transform-origin="30 21" transform="rotate(6)"><g class="transformation"><rect x="30" y="21" width="43" height="43" fill="none"/><circle cx="73" cy="64" r="5"/></g></g>
<g transform-origin="-21 140" transform="rotate(63)"><g class="transformation"><rect x="-21" y="140" width="43" height="43" fill="none"/><circle cx="22" cy="183" r="5"/></g></g>
<g transform-origin="-13 51" transform="rotate(164)"><g class="transformation"><rect x="-13" y="51" width="51" height="51" fill="none"/><circle cx="38" cy="102" r="5"/></g></g>
<g transform-origin="99 19" transform="rotate(141)"><g class="transformation"><rect x="99" y="19" width="60" height="60" fill="none"/><circle cx="159" cy="79" r="5"/></g></g>
<g transform-origin="301 107" transform="rotate(267)"><g class="transformation"><rect x="301" y="107" width="45" height="45" fill="none"/><circle cx="346" cy="152" r="5"/></g></g>
<g transform-origin="262 126" transform="rotate(329)"><g class="transformation"><rect x="262" y="126" width="40" height="40" fill="none"/><circle cx="302" cy="166" r="5"/></g></g>
<g transform-origin="244 50" transform="rotate(334)"><g class="transformation"><rect x="244" y="50" width="56" height="56" fill="none"/><circle cx="300" cy="106" r="5"/></g></g>
<g transform-origin="186 159" transform="rotate(343)"><g class="transformation"><rect x="186" y="159" width="53" height="53" fill="none"/><circle cx="239" cy="212" r="5"/></g></g>
<g transform-origin="326 72" transform="rotate(287)"><g class="transformation"><rect x="326" y="72" width="54" height="54" fill="none"/><circle cx="380" cy="126" r="5"/></g></g>
<g transform-origin="228 109" transform="rotate(319)"><g class="transformation"><rect x="228" y="109" width="53" height="53" fill="none"/><circle cx="281" cy="162" r="5"/></g></g>
<g transform-origin="42 332" transform="rotate(85)"><g class="transformation"><rect x="42" y="332" width="45" height="45" fill="none"/><circle cx="87" cy="377" r="5"/></g></g>
<g transform-origin="-5 335" transform="rotate(193)"><g class="transformation"><rect x="-5" y="335" width="55" height="55" fill="none"/><circle cx="50" cy="390" r="5"/></g></g>
<g transform-origin="207 -28" transform="rotate(135)"><g class="transformation"><rect x="207" y="-28" width="55" height="55" fill="none"/><circle cx="262" cy="27" r="5"/></g></g>
<g transform-origin="263 -38" transform="rotate(327)"><g class="transformation"><rect x="263" y="-38" width="40" height="40" fill="none"/><circle cx="303" cy="2" r="5"/></g></g>
<g transform-origin="243 223" transform="rotate(293)"><g class="transformation"><rect x="243" y="223" width="44" height="44" fill="none"/><circle cx="287" cy="267" r="5"/></g></g>
<g transform-origin="347 230" transform="rotate(229)"><g class="transformation"><rect x="347" y="230" width="56" height="56" fill="none"/><circle cx="403" cy="286" r="5"/></g></g>
<g transform-origin="43 272" transform="rotate(104)"><g class="transformation"><rect x="43" y="272" width="48" height="48" fill="none"/><circle cx="91" cy="320" r="5"/></g></g>
<g transform-origin="-17 215" transform="rotate(189)"><g class="transformation"><rect x="-17" y="215" width="55" height="55" fill="none"/><circle cx="38" cy="270" r="5"/></g></g>
<g transform-origin="-13 -45" transform="rotate(335)"><g class="transformation"><rect x="-13" y="-45" width="54" height="54" fill="none"/><circle cx="41" cy="9" r="5"/></g></g>
<g transform-origin="37 209" transform="rotate(199)"><g class="transformation"><rect x="37" y="209" width="43" height="43" fill="none"/><circle cx="80" cy="252" r="5"/></g></g>
<g transform-origin="79 112" transform="rotate(66)"><g class="transformation"><rect x="79" y="112" width="55" height="55" fill="none"/><circle cx="134" cy="167" r="5"/></g></g>
<g transform-origin="301 182" transform="rotate(61)"><g class="transformation"><rect x="301" y="182" width="40" height="40" fill="none"/><circle cx="341" cy="222" r="5"/></g></g>
<g transform-origin="288 356" transform="rotate(41)"><g class="transformation"><rect x="288" y="356" width="57" height="57" fill="none"/><circle cx="345" cy="413" r="5"/></g></g>
<g transform-origin="174 65" transform="rotate(14)"><g class="transformation"><rect x="174" y="65" width="57" height="57" fill="none"/><circle cx="231" cy="122" r="5"/></g></g>
<g transform-origin="348 76" transform="rotate(136)"><g class="transformation"><rect x="348" y="76" width="60" height="60" fill="none"/><circle cx="408" cy="136" r="5"/></g></g>
<g transform-origin="240 156" transform="rotate(269)"><g class="transformation"><rect x="240" y="156" width="59" height="59" fill="none"/><circle cx="299" cy="215" r="5"/></g></g>
<g transform-origin="113 165" transform="rotate(339)"><g class="transformation"><rect x="113" y="165" width="41" height="41" fill="none"/><circle cx="154" cy="206" r="5"/></g></g>
<g transform-origin="177 216" transform="rotate(147)"><g class="transformation"><rect x="177" y="216" width="58" height="58" fill="none"/><circle cx="235" cy="274" r="5"/></g></g>
<g transform-origin="30 266" transform="rotate(295)"><g class="transformation"><rect x="30" y="266" width="59" height="59" fill="none"/><circle cx="89" cy="325" r="5"/></g></g>
<g transform-origin="131 -6" transform="rotate(6)"><g class="transformation"><rect x="131" y="-6" width="58" height="58" fill="none"/><circle cx="189" cy="52" r="5"/></g></g>
<g transform-origin="332 322" transform="rotate(194)"><g class="transformation"><rect x="332" y="322" width="41" height="41" fill="none"/><circle cx="373" cy="363" r="5"/></g></g>
<g transform-origin="212 302" transform="rotate(146)"><g class="transformation"><rect x="212" y="302" width="55" height="55" fill="none"/><circle cx="267" cy="357" r="5"/></g></g>
<g transform-origin="-51 -42" transform="rotate(314)"><g class="transformation"><rect x="-51" y="-42" width="56" height="56" fill="none"/><circle cx="5" cy="14" r="5"/></g></g>

    <style>
        .transformation{
            animation: rotation linear 3s infinite;
        }

        @keyframes rotation{
            0% {
                transform-box: fill-box;
                /*transform-origin: center;*/
                transform: rotate(0deg);
            }
            100% {
                transform-box: fill-box;
                /*transform-origin: center;*/
                transform: rotate(360deg);
            }
        }
    </style>
</svg>