<svg xmlns='http://www.w3.org/2000/svg' xmlns:xlink='http://www.w3.org/1999/xlink' viewBox='0 0 200 200' shape-rendering='geometricPrecision' text-rendering='geometricPrecision'>
    <g transform="translate(0, 0)">
        <text x="100" y="100" text-anchor="middle" dominant-baseline="central" alignment-baseline="central" font-size="16" font-family="Arab">C</text>

        <text x="100" y="70" text-anchor="middle" dominant-baseline="central" alignment-baseline="central" font-size="16" font-family="Arab">H</text>
        
        <path d="M 100 90 L 100 80" stroke="black"></path>
    </g>

    <g transform="translate(0, 0)">
        <text x="100" y="130" text-anchor="middle" dominant-baseline="central" alignment-baseline="central" font-size="16" font-family="Arab">C</text>
        <text x="100" y="160" text-anchor="middle" dominant-baseline="central" alignment-baseline="central" font-size="16" font-family="Arab">H</text>
        <text x="70" y="130" text-anchor="middle" dominant-baseline="central" alignment-baseline="central" font-size="16" font-family="Arab">H</text>
        <text x="130" y="130" text-anchor="middle" dominant-baseline="central" alignment-baseline="central" font-size="16" font-family="Arab">H</text>
        <path d="M 100 110 L 100 120" stroke="black"></path>
        <path d="M 100 140 L 100 150" stroke="black"></path>
        <path d="M 80 130 L 90 130" stroke="black"></path>
        <path d="M 110 130 L 120 130" stroke="black"></path>
    </g>

    <g transform="translate(0, 0)">
        <text x="70" y="85" text-anchor="middle" dominant-baseline="central" alignment-baseline="central" font-size="16" font-family="Arab">C</text>
        <text x="40" y="70" text-anchor="middle" dominant-baseline="central" alignment-baseline="central" font-size="16" font-family="Arab">H</text>
        <text x="50" y="105" text-anchor="middle" dominant-baseline="central" alignment-baseline="central" font-size="16" font-family="Arab">H</text>
        <text x="85" y="65" text-anchor="middle" dominant-baseline="central" alignment-baseline="central" font-size="16" font-family="Arab">H</text>
        <path d="M 90 95 L 80 90" stroke="black"></path>
        <path d="M 50 75 L 60 80" stroke="black"></path>
        <path d="M 57 100 L 65 90" stroke="black"></path>
        <path d="M 74 78 L 79 72" stroke="black"></path>
    </g>

    <g transform="translate(0, 0)">
        <text x="130" y="85" text-anchor="middle" dominant-baseline="central" alignment-baseline="central" font-size="16" font-family="Arab">C</text>
        <text x="160" y="70" text-anchor="middle" dominant-baseline="central" alignment-baseline="central" font-size="16" font-family="Arab">H</text>
        <text x="150" y="105" text-anchor="middle" dominant-baseline="central" alignment-baseline="central" font-size="16" font-family="Arab">H</text>
        <text x="115" y="65" text-anchor="middle" dominant-baseline="central" alignment-baseline="central" font-size="16" font-family="Arab">H</text>
        <path d="M 110 95 L 120 90" stroke="black"></path>
        <path d="M 150 75 L 140 80" stroke="black"></path>
        <path d="M 143 100 L 135 90" stroke="black"></path>
        <path d="M 126 78 L 121 72" stroke="black"></path>
    </g>
</svg>