<svg xmlns='http://www.w3.org/2000/svg' xmlns:xlink='http://www.w3.org/1999/xlink' viewBox='0 0 500 500' shape-rendering='geometricPrecision' text-rendering='geometricPrecision'>
    <g transform="translate(0, 0)">
        <circle cx="100" cy="100" r="20" stroke-width='10' fill='#89CFF0'/>
        <text x="100" y="100" text-anchor="middle" dominant-baseline="central" alignment-baseline="central">‒</text>

        <circle cx="160" cy="100" r="20" stroke-width='10' fill='#EE4B2B'/>
        <text x="160" y="100" text-anchor="middle" dominant-baseline="central" alignment-baseline="central">‒</text>

        <circle cx="220" cy="100" r="20" stroke-width='10' fill='#89CFF0'/>
        <text x="220" y="100" text-anchor="middle" dominant-baseline="central" alignment-baseline="central">‒</text>
        
        <circle cx="280" cy="100" r="20" stroke-width='10' fill='#EE4B2B'/>
        <text x="280" y="100" text-anchor="middle" dominant-baseline="central" alignment-baseline="central">‒</text>

        <circle cx="340" cy="100" r="20" stroke-width='10' fill='#89CFF0'/>
        <text x="340" y="100" text-anchor="middle" dominant-baseline="central" alignment-baseline="central">‒</text>

        <circle cx="400" cy="100" r="20" stroke-width='10' fill='#EE4B2B'/>
        <text x="400" y="100" text-anchor="middle" dominant-baseline="central" alignment-baseline="central">‒</text>


        <circle cx="100" cy="160" r="20" stroke-width='10' fill='#EE4B2B'/>
        <text x="100" y="160" text-anchor="middle" dominant-baseline="central" alignment-baseline="central">‒</text>

        <circle cx="160" cy="160" r="20" stroke-width='10' fill='#89CFF0'/>
        <text x="160" y="160" text-anchor="middle" dominant-baseline="central" alignment-baseline="central">‒</text>

        <circle cx="220" cy="160" r="20" stroke-width='10' fill='#EE4B2B'/>
        <text x="220" y="160" text-anchor="middle" dominant-baseline="central" alignment-baseline="central">‒</text>
        
        <circle cx="280" cy="160" r="20" stroke-width='10' fill='#89CFF0'/>
        <text x="280" y="160" text-anchor="middle" dominant-baseline="central" alignment-baseline="central">‒</text>

        <circle cx="340" cy="160" r="20" stroke-width='10' fill='#EE4B2B'/>
        <text x="340" y="160" text-anchor="middle" dominant-baseline="central" alignment-baseline="central">‒</text>

        <circle cx="400" cy="160" r="20" stroke-width='10' fill='#89CFF0'/>
        <text x="400" y="160" text-anchor="middle" dominant-baseline="central" alignment-baseline="central">‒</text>


        <circle cx="100" cy="220" r="20" stroke-width='10' fill='#89CFF0'/>
        <text x="100" y="220" text-anchor="middle" dominant-baseline="central" alignment-baseline="central">‒</text>

        <circle cx="160" cy="220" r="20" stroke-width='10' fill='#EE4B2B'/>
        <text x="160" y="220" text-anchor="middle" dominant-baseline="central" alignment-baseline="central">‒</text>

        <circle cx="220" cy="220" r="20" stroke-width='10' fill='#89CFF0'/>
        <text x="220" y="220" text-anchor="middle" dominant-baseline="central" alignment-baseline="central">‒</text>
        
        <circle cx="280" cy="220" r="20" stroke-width='10' fill='#EE4B2B'/>
        <text x="280" y="220" text-anchor="middle" dominant-baseline="central" alignment-baseline="central">‒</text>

        <circle cx="340" cy="220" r="20" stroke-width='10' fill='#89CFF0'/>
        <text x="340" y="220" text-anchor="middle" dominant-baseline="central" alignment-baseline="central">‒</text>

        <circle cx="400" cy="220" r="20" stroke-width='10' fill='#EE4B2B'/>
        <text x="400" y="220" text-anchor="middle" dominant-baseline="central" alignment-baseline="central">‒</text>


        <circle cx="100" cy="280" r="20" stroke-width='10' fill='#EE4B2B'/>
        <text x="100" y="280" text-anchor="middle" dominant-baseline="central" alignment-baseline="central">‒</text>

        <circle cx="160" cy="280" r="20" stroke-width='10' fill='#89CFF0'/>
        <text x="160" y="280" text-anchor="middle" dominant-baseline="central" alignment-baseline="central">‒</text>

        <circle cx="220" cy="280" r="20" stroke-width='10' fill='#EE4B2B'/>
        <text x="220" y="280" text-anchor="middle" dominant-baseline="central" alignment-baseline="central">‒</text>
        
        <circle cx="280" cy="280" r="20" stroke-width='10' fill='#89CFF0'/>
        <text x="280" y="280" text-anchor="middle" dominant-baseline="central" alignment-baseline="central">‒</text>

        <circle cx="340" cy="280" r="20" stroke-width='10' fill='#EE4B2B'/>
        <text x="340" y="280" text-anchor="middle" dominant-baseline="central" alignment-baseline="central">‒</text>

        <circle cx="400" cy="280" r="20" stroke-width='10' fill='#89CFF0'/>
        <text x="400" y="280" text-anchor="middle" dominant-baseline="central" alignment-baseline="central">‒</text>


        <circle cx="100" cy="340" r="20" stroke-width='10' fill='#89CFF0'/>
        <text x="100" y="340" text-anchor="middle" dominant-baseline="central" alignment-baseline="central">‒</text>

        <circle cx="160" cy="340" r="20" stroke-width='10' fill='#EE4B2B'/>
        <text x="160" y="340" text-anchor="middle" dominant-baseline="central" alignment-baseline="central">‒</text>

        <circle cx="220" cy="340" r="20" stroke-width='10' fill='#89CFF0'/>
        <text x="220" y="340" text-anchor="middle" dominant-baseline="central" alignment-baseline="central">‒</text>
        
        <circle cx="280" cy="340" r="20" stroke-width='10' fill='#EE4B2B'/>
        <text x="280" y="340" text-anchor="middle" dominant-baseline="central" alignment-baseline="central">‒</text>

        <circle cx="340" cy="340" r="20" stroke-width='10' fill='#89CFF0'/>
        <text x="340" y="340" text-anchor="middle" dominant-baseline="central" alignment-baseline="central">‒</text>

        <circle cx="400" cy="340" r="20" stroke-width='10' fill='#EE4B2B'/>
        <text x="400" y="340" text-anchor="middle" dominant-baseline="central" alignment-baseline="central">‒</text>


        <circle cx="100" cy="400" r="20" stroke-width='10' fill='#EE4B2B'/>
        <text x="100" y="400" text-anchor="middle" dominant-baseline="central" alignment-baseline="central">‒</text>

        <circle cx="160" cy="400" r="20" stroke-width='10' fill='#89CFF0'/>
        <text x="160" y="400" text-anchor="middle" dominant-baseline="central" alignment-baseline="central">‒</text>

        <circle cx="220" cy="400" r="20" stroke-width='10' fill='#EE4B2B'/>
        <text x="220" y="400" text-anchor="middle" dominant-baseline="central" alignment-baseline="central">‒</text>
        
        <circle cx="280" cy="400" r="20" stroke-width='10' fill='#89CFF0'/>
        <text x="280" y="400" text-anchor="middle" dominant-baseline="central" alignment-baseline="central">‒</text>

        <circle cx="340" cy="400" r="20" stroke-width='10' fill='#EE4B2B'/>
        <text x="340" y="400" text-anchor="middle" dominant-baseline="central" alignment-baseline="central">‒</text>

        <circle cx="400" cy="400" r="20" stroke-width='10' fill='#89CFF0'/>
        <text x="400" y="400" text-anchor="middle" dominant-baseline="central" alignment-baseline="central">‒</text>
    </g>
</svg>