<svg xmlns='http://www.w3.org/2000/svg' xmlns:xlink='http://www.w3.org/1999/xlink' viewBox='0 0 500 500' shape-rendering='geometricPrecision' text-rendering='geometricPrecision'>
    <g transform="translate(0, 0)">
        <circle cx="372" cy="347" r="5" stroke-width='10' fill='#89CFF0'/>
        <text x="372" y="347" text-anchor="middle" dominant-baseline="central" alignment-baseline="central">‒</text>

        <circle cx="188" cy="208" r="5" stroke-width='10' fill='#89CFF0'/>
        <text x="188" y="208" text-anchor="middle" dominant-baseline="central" alignment-baseline="central">‒</text>

        <circle cx="243" cy="259" r="5" stroke-width='10' fill='#89CFF0'/>
        <text x="243" y="259" text-anchor="middle" dominant-baseline="central" alignment-baseline="central">‒</text>

        <circle cx="156" cy="372" r="5" stroke-width='10' fill='#89CFF0'/>
        <text x="156" y="372" text-anchor="middle" dominant-baseline="central" alignment-baseline="central">‒</text>

        <circle cx="229" cy="338" r="5" stroke-width='10' fill='#89CFF0'/>
        <text x="229" y="338" text-anchor="middle" dominant-baseline="central" alignment-baseline="central">‒</text>

        <circle cx="106" cy="207" r="5" stroke-width='10' fill='#89CFF0'/>
        <text x="106" y="207" text-anchor="middle" dominant-baseline="central" alignment-baseline="central">‒</text>

        <circle cx="402" cy="274" r="5" stroke-width='10' fill='#89CFF0'/>
        <text x="402" y="274" text-anchor="middle" dominant-baseline="central" alignment-baseline="central">‒</text>

        <circle cx="273" cy="118" r="5" stroke-width='10' fill='#89CFF0'/>
        <text x="273" y="118" text-anchor="middle" dominant-baseline="central" alignment-baseline="central">‒</text>

        <circle cx="403" cy="250" r="5" stroke-width='10' fill='#89CFF0'/>
        <text x="403" y="250" text-anchor="middle" dominant-baseline="central" alignment-baseline="central">‒</text>

        <circle cx="191" cy="100" r="5" stroke-width='10' fill='#89CFF0'/>
        <text x="191" y="100" text-anchor="middle" dominant-baseline="central" alignment-baseline="central">‒</text>

        <circle cx="164" cy="325" r="5" stroke-width='10' fill='#89CFF0'/>
        <text x="164" y="325" text-anchor="middle" dominant-baseline="central" alignment-baseline="central">‒</text>

        <circle cx="264" cy="150" r="5" stroke-width='10' fill='#89CFF0'/>
        <text x="264" y="150" text-anchor="middle" dominant-baseline="central" alignment-baseline="central">‒</text>

        <circle cx="240" cy="302" r="5" stroke-width='10' fill='#89CFF0'/>
        <text x="240" y="302" text-anchor="middle" dominant-baseline="central" alignment-baseline="central">‒</text>

        <circle cx="257" cy="186" r="5" stroke-width='10' fill='#89CFF0'/>
        <text x="257" y="186" text-anchor="middle" dominant-baseline="central" alignment-baseline="central">‒</text>

        <circle cx="202" cy="121" r="5" stroke-width='10' fill='#89CFF0'/>
        <text x="202" y="121" text-anchor="middle" dominant-baseline="central" alignment-baseline="central">‒</text>

        <circle cx="270" cy="386" r="5" stroke-width='10' fill='#89CFF0'/>
        <text x="270" y="386" text-anchor="middle" dominant-baseline="central" alignment-baseline="central">‒</text>

        <circle cx="293" cy="239" r="5" stroke-width='10' fill='#89CFF0'/>
        <text x="293" y="239" text-anchor="middle" dominant-baseline="central" alignment-baseline="central">‒</text>

        <circle cx="233" cy="419" r="5" stroke-width='10' fill='#89CFF0'/>
        <text x="233" y="419" text-anchor="middle" dominant-baseline="central" alignment-baseline="central">‒</text>

        <circle cx="290" cy="127" r="5" stroke-width='10' fill='#89CFF0'/>
        <text x="290" y="127" text-anchor="middle" dominant-baseline="central" alignment-baseline="central">‒</text>

        <circle cx="329" cy="318" r="5" stroke-width='10' fill='#89CFF0'/>
        <text x="329" y="318" text-anchor="middle" dominant-baseline="central" alignment-baseline="central">‒</text>

        <circle cx="216" cy="183" r="5" stroke-width='10' fill='#89CFF0'/>
        <text x="216" y="183" text-anchor="middle" dominant-baseline="central" alignment-baseline="central">‒</text>

        <circle cx="259" cy="201" r="5" stroke-width='10' fill='#89CFF0'/>
        <text x="259" y="201" text-anchor="middle" dominant-baseline="central" alignment-baseline="central">‒</text>

        <circle cx="350" cy="269" r="5" stroke-width='10' fill='#89CFF0'/>
        <text x="350" y="269" text-anchor="middle" dominant-baseline="central" alignment-baseline="central">‒</text>

        <circle cx="247" cy="384" r="5" stroke-width='10' fill='#89CFF0'/>
        <text x="247" y="384" text-anchor="middle" dominant-baseline="central" alignment-baseline="central">‒</text>

        <circle cx="301" cy="182" r="5" stroke-width='10' fill='#89CFF0'/>
        <text x="301" y="182" text-anchor="middle" dominant-baseline="central" alignment-baseline="central">‒</text>

        <circle cx="248" cy="324" r="5" stroke-width='10' fill='#89CFF0'/>
        <text x="248" y="324" text-anchor="middle" dominant-baseline="central" alignment-baseline="central">‒</text>

        <circle cx="242" cy="133" r="5" stroke-width='10' fill='#89CFF0'/>
        <text x="242" y="133" text-anchor="middle" dominant-baseline="central" alignment-baseline="central">‒</text>

        <circle cx="181" cy="414" r="5" stroke-width='10' fill='#89CFF0'/>
        <text x="181" y="414" text-anchor="middle" dominant-baseline="central" alignment-baseline="central">‒</text>

        <circle cx="396" cy="355" r="5" stroke-width='10' fill='#89CFF0'/>
        <text x="396" y="355" text-anchor="middle" dominant-baseline="central" alignment-baseline="central">‒</text>

        <circle cx="403" cy="368" r="5" stroke-width='10' fill='#89CFF0'/>
        <text x="403" y="368" text-anchor="middle" dominant-baseline="central" alignment-baseline="central">‒</text>

        <circle cx="215" cy="233" r="5" stroke-width='10' fill='#89CFF0'/>
        <text x="215" y="233" text-anchor="middle" dominant-baseline="central" alignment-baseline="central">‒</text>

        <circle cx="226" cy="257" r="5" stroke-width='10' fill='#89CFF0'/>
        <text x="226" y="257" text-anchor="middle" dominant-baseline="central" alignment-baseline="central">‒</text>

        <circle cx="255" cy="117" r="5" stroke-width='10' fill='#89CFF0'/>
        <text x="255" y="117" text-anchor="middle" dominant-baseline="central" alignment-baseline="central">‒</text>

        <circle cx="391" cy="179" r="5" stroke-width='10' fill='#89CFF0'/>
        <text x="391" y="179" text-anchor="middle" dominant-baseline="central" alignment-baseline="central">‒</text>

        <circle cx="226" cy="363" r="5" stroke-width='10' fill='#89CFF0'/>
        <text x="226" y="363" text-anchor="middle" dominant-baseline="central" alignment-baseline="central">‒</text>

        <circle cx="169" cy="414" r="5" stroke-width='10' fill='#89CFF0'/>
        <text x="169" y="414" text-anchor="middle" dominant-baseline="central" alignment-baseline="central">‒</text>

        <circle cx="210" cy="196" r="5" stroke-width='10' fill='#89CFF0'/>
        <text x="210" y="196" text-anchor="middle" dominant-baseline="central" alignment-baseline="central">‒</text>

        <circle cx="331" cy="281" r="5" stroke-width='10' fill='#89CFF0'/>
        <text x="331" y="281" text-anchor="middle" dominant-baseline="central" alignment-baseline="central">‒</text>

        <circle cx="314" cy="278" r="5" stroke-width='10' fill='#89CFF0'/>
        <text x="314" y="278" text-anchor="middle" dominant-baseline="central" alignment-baseline="central">‒</text>

        <circle cx="407" cy="404" r="5" stroke-width='10' fill='#89CFF0'/>
        <text x="407" y="404" text-anchor="middle" dominant-baseline="central" alignment-baseline="central">‒</text>

        <circle cx="297" cy="265" r="5" stroke-width='10' fill='#89CFF0'/>
        <text x="297" y="265" text-anchor="middle" dominant-baseline="central" alignment-baseline="central">‒</text>

        <circle cx="194" cy="366" r="5" stroke-width='10' fill='#89CFF0'/>
        <text x="194" y="366" text-anchor="middle" dominant-baseline="central" alignment-baseline="central">‒</text>

        <circle cx="250" cy="298" r="5" stroke-width='10' fill='#89CFF0'/>
        <text x="250" y="298" text-anchor="middle" dominant-baseline="central" alignment-baseline="central">‒</text>

        <circle cx="91" cy="234" r="5" stroke-width='10' fill='#89CFF0'/>
        <text x="91" y="234" text-anchor="middle" dominant-baseline="central" alignment-baseline="central">‒</text>

        <circle cx="375" cy="248" r="5" stroke-width='10' fill='#89CFF0'/>
        <text x="375" y="248" text-anchor="middle" dominant-baseline="central" alignment-baseline="central">‒</text>

        <circle cx="398" cy="169" r="5" stroke-width='10' fill='#89CFF0'/>
        <text x="398" y="169" text-anchor="middle" dominant-baseline="central" alignment-baseline="central">‒</text>

        <circle cx="158" cy="339" r="5" stroke-width='10' fill='#89CFF0'/>
        <text x="158" y="339" text-anchor="middle" dominant-baseline="central" alignment-baseline="central">‒</text>

        <circle cx="353" cy="173" r="5" stroke-width='10' fill='#89CFF0'/>
        <text x="353" y="173" text-anchor="middle" dominant-baseline="central" alignment-baseline="central">‒</text>

        <circle cx="199" cy="330" r="5" stroke-width='10' fill='#89CFF0'/>
        <text x="199" y="330" text-anchor="middle" dominant-baseline="central" alignment-baseline="central">‒</text>

        <circle cx="150" cy="339" r="5" stroke-width='10' fill='#89CFF0'/>
        <text x="150" y="339" text-anchor="middle" dominant-baseline="central" alignment-baseline="central">‒</text>

        <circle cx="291" cy="221" r="5" stroke-width='10' fill='#89CFF0'/>
        <text x="291" y="221" text-anchor="middle" dominant-baseline="central" alignment-baseline="central">‒</text>

        <circle cx="192" cy="331" r="5" stroke-width='10' fill='#89CFF0'/>
        <text x="192" y="331" text-anchor="middle" dominant-baseline="central" alignment-baseline="central">‒</text>

        <circle cx="334" cy="313" r="5" stroke-width='10' fill='#89CFF0'/>
        <text x="334" y="313" text-anchor="middle" dominant-baseline="central" alignment-baseline="central">‒</text>

        <circle cx="251" cy="181" r="5" stroke-width='10' fill='#89CFF0'/>
        <text x="251" y="181" text-anchor="middle" dominant-baseline="central" alignment-baseline="central">‒</text>

        <circle cx="178" cy="242" r="5" stroke-width='10' fill='#89CFF0'/>
        <text x="178" y="242" text-anchor="middle" dominant-baseline="central" alignment-baseline="central">‒</text>

        <circle cx="83" cy="149" r="5" stroke-width='10' fill='#89CFF0'/>
        <text x="83" y="149" text-anchor="middle" dominant-baseline="central" alignment-baseline="central">‒</text>

        <circle cx="149" cy="409" r="5" stroke-width='10' fill='#89CFF0'/>
        <text x="149" y="409" text-anchor="middle" dominant-baseline="central" alignment-baseline="central">‒</text>

        <circle cx="309" cy="248" r="5" stroke-width='10' fill='#89CFF0'/>
        <text x="309" y="248" text-anchor="middle" dominant-baseline="central" alignment-baseline="central">‒</text>

        <circle cx="364" cy="229" r="5" stroke-width='10' fill='#89CFF0'/>
        <text x="364" y="229" text-anchor="middle" dominant-baseline="central" alignment-baseline="central">‒</text>

        <circle cx="228" cy="316" r="5" stroke-width='10' fill='#89CFF0'/>
        <text x="228" y="316" text-anchor="middle" dominant-baseline="central" alignment-baseline="central">‒</text>

        <circle cx="138" cy="330" r="5" stroke-width='10' fill='#89CFF0'/>
        <text x="138" y="330" text-anchor="middle" dominant-baseline="central" alignment-baseline="central">‒</text>

        <circle cx="321" cy="152" r="5" stroke-width='10' fill='#89CFF0'/>
        <text x="321" y="152" text-anchor="middle" dominant-baseline="central" alignment-baseline="central">‒</text>

        <circle cx="401" cy="306" r="5" stroke-width='10' fill='#89CFF0'/>
        <text x="401" y="306" text-anchor="middle" dominant-baseline="central" alignment-baseline="central">‒</text>

        <circle cx="90" cy="389" r="5" stroke-width='10' fill='#89CFF0'/>
        <text x="90" y="389" text-anchor="middle" dominant-baseline="central" alignment-baseline="central">‒</text>

        <circle cx="214" cy="280" r="5" stroke-width='10' fill='#89CFF0'/>
        <text x="214" y="280" text-anchor="middle" dominant-baseline="central" alignment-baseline="central">‒</text>

        <circle cx="262" cy="353" r="5" stroke-width='10' fill='#89CFF0'/>
        <text x="262" y="353" text-anchor="middle" dominant-baseline="central" alignment-baseline="central">‒</text>

        <circle cx="80" cy="198" r="5" stroke-width='10' fill='#89CFF0'/>
        <text x="80" y="198" text-anchor="middle" dominant-baseline="central" alignment-baseline="central">‒</text>

        <circle cx="268" cy="205" r="5" stroke-width='10' fill='#89CFF0'/>
        <text x="268" y="205" text-anchor="middle" dominant-baseline="central" alignment-baseline="central">‒</text>

        <circle cx="196" cy="81" r="5" stroke-width='10' fill='#89CFF0'/>
        <text x="196" y="81" text-anchor="middle" dominant-baseline="central" alignment-baseline="central">‒</text>

        <circle cx="325" cy="206" r="5" stroke-width='10' fill='#89CFF0'/>
        <text x="325" y="206" text-anchor="middle" dominant-baseline="central" alignment-baseline="central">‒</text>

        <circle cx="202" cy="95" r="5" stroke-width='10' fill='#89CFF0'/>
        <text x="202" y="95" text-anchor="middle" dominant-baseline="central" alignment-baseline="central">‒</text>

        <circle cx="113" cy="185" r="5" stroke-width='10' fill='#89CFF0'/>
        <text x="113" y="185" text-anchor="middle" dominant-baseline="central" alignment-baseline="central">‒</text>

        <circle cx="357" cy="328" r="5" stroke-width='10' fill='#89CFF0'/>
        <text x="357" y="328" text-anchor="middle" dominant-baseline="central" alignment-baseline="central">‒</text>

        <circle cx="104" cy="108" r="5" stroke-width='10' fill='#89CFF0'/>
        <text x="104" y="108" text-anchor="middle" dominant-baseline="central" alignment-baseline="central">‒</text>

        <circle cx="142" cy="157" r="5" stroke-width='10' fill='#89CFF0'/>
        <text x="142" y="157" text-anchor="middle" dominant-baseline="central" alignment-baseline="central">‒</text>

        <circle cx="113" cy="352" r="5" stroke-width='10' fill='#89CFF0'/>
        <text x="113" y="352" text-anchor="middle" dominant-baseline="central" alignment-baseline="central">‒</text>

        <circle cx="246" cy="123" r="5" stroke-width='10' fill='#89CFF0'/>
        <text x="246" y="123" text-anchor="middle" dominant-baseline="central" alignment-baseline="central">‒</text>

        <circle cx="383" cy="184" r="5" stroke-width='10' fill='#89CFF0'/>
        <text x="383" y="184" text-anchor="middle" dominant-baseline="central" alignment-baseline="central">‒</text>

        <circle cx="170" cy="199" r="5" stroke-width='10' fill='#89CFF0'/>
        <text x="170" y="199" text-anchor="middle" dominant-baseline="central" alignment-baseline="central">‒</text>

        <circle cx="121" cy="392" r="5" stroke-width='10' fill='#89CFF0'/>
        <text x="121" y="392" text-anchor="middle" dominant-baseline="central" alignment-baseline="central">‒</text>

        <circle cx="180" cy="310" r="5" stroke-width='10' fill='#89CFF0'/>
        <text x="180" y="310" text-anchor="middle" dominant-baseline="central" alignment-baseline="central">‒</text>

        <circle cx="414" cy="404" r="5" stroke-width='10' fill='#89CFF0'/>
        <text x="414" y="404" text-anchor="middle" dominant-baseline="central" alignment-baseline="central">‒</text>

        <circle cx="329" cy="125" r="5" stroke-width='10' fill='#89CFF0'/>
        <text x="329" y="125" text-anchor="middle" dominant-baseline="central" alignment-baseline="central">‒</text>

        <circle cx="272" cy="121" r="5" stroke-width='10' fill='#89CFF0'/>
        <text x="272" y="121" text-anchor="middle" dominant-baseline="central" alignment-baseline="central">‒</text>

        <circle cx="402" cy="370" r="5" stroke-width='10' fill='#89CFF0'/>
        <text x="402" y="370" text-anchor="middle" dominant-baseline="central" alignment-baseline="central">‒</text>

        <circle cx="304" cy="339" r="5" stroke-width='10' fill='#89CFF0'/>
        <text x="304" y="339" text-anchor="middle" dominant-baseline="central" alignment-baseline="central">‒</text>

        <circle cx="224" cy="152" r="5" stroke-width='10' fill='#89CFF0'/>
        <text x="224" y="152" text-anchor="middle" dominant-baseline="central" alignment-baseline="central">‒</text>

        <circle cx="381" cy="375" r="5" stroke-width='10' fill='#89CFF0'/>
        <text x="381" y="375" text-anchor="middle" dominant-baseline="central" alignment-baseline="central">‒</text>

        <circle cx="210" cy="191" r="5" stroke-width='10' fill='#89CFF0'/>
        <text x="210" y="191" text-anchor="middle" dominant-baseline="central" alignment-baseline="central">‒</text>

        <circle cx="85" cy="147" r="5" stroke-width='10' fill='#89CFF0'/>
        <text x="85" y="147" text-anchor="middle" dominant-baseline="central" alignment-baseline="central">‒</text>

        <circle cx="301" cy="398" r="5" stroke-width='10' fill='#89CFF0'/>
        <text x="301" y="398" text-anchor="middle" dominant-baseline="central" alignment-baseline="central">‒</text>

        <circle cx="388" cy="258" r="5" stroke-width='10' fill='#89CFF0'/>
        <text x="388" y="258" text-anchor="middle" dominant-baseline="central" alignment-baseline="central">‒</text>

        <circle cx="337" cy="100" r="5" stroke-width='10' fill='#89CFF0'/>
        <text x="337" y="100" text-anchor="middle" dominant-baseline="central" alignment-baseline="central">‒</text>

        <circle cx="231" cy="162" r="5" stroke-width='10' fill='#89CFF0'/>
        <text x="231" y="162" text-anchor="middle" dominant-baseline="central" alignment-baseline="central">‒</text>

        <circle cx="86" cy="276" r="5" stroke-width='10' fill='#89CFF0'/>
        <text x="86" y="276" text-anchor="middle" dominant-baseline="central" alignment-baseline="central">‒</text>

        <circle cx="85" cy="107" r="5" stroke-width='10' fill='#89CFF0'/>
        <text x="85" y="107" text-anchor="middle" dominant-baseline="central" alignment-baseline="central">‒</text>

        <circle cx="323" cy="412" r="5" stroke-width='10' fill='#89CFF0'/>
        <text x="323" y="412" text-anchor="middle" dominant-baseline="central" alignment-baseline="central">‒</text>

        <circle cx="323" cy="284" r="5" stroke-width='10' fill='#89CFF0'/>
        <text x="323" y="284" text-anchor="middle" dominant-baseline="central" alignment-baseline="central">‒</text>

        <circle cx="337" cy="113" r="5" stroke-width='10' fill='#89CFF0'/>
        <text x="337" y="113" text-anchor="middle" dominant-baseline="central" alignment-baseline="central">‒</text>

        <circle cx="368" cy="85" r="5" stroke-width='10' fill='#89CFF0'/>
        <text x="368" y="85" text-anchor="middle" dominant-baseline="central" alignment-baseline="central">‒</text>


        
        <circle cx="100" cy="100" r="20" stroke-width='10' fill='#EE4B2B'/>
        <text x="100" y="100" text-anchor="middle" dominant-baseline="central" alignment-baseline="central">+</text>

        <circle cx="160" cy="100" r="20" stroke-width='10' fill='#EE4B2B'/>
        <text x="160" y="100" text-anchor="middle" dominant-baseline="central" alignment-baseline="central">+</text>

        <circle cx="220" cy="100" r="20" stroke-width='10' fill='#EE4B2B'/>
        <text x="220" y="100" text-anchor="middle" dominant-baseline="central" alignment-baseline="central">+</text>
        
        <circle cx="280" cy="100" r="20" stroke-width='10' fill='#EE4B2B'/>
        <text x="280" y="100" text-anchor="middle" dominant-baseline="central" alignment-baseline="central">+</text>

        <circle cx="340" cy="100" r="20" stroke-width='10' fill='#EE4B2B'/>
        <text x="340" y="100" text-anchor="middle" dominant-baseline="central" alignment-baseline="central">+</text>

        <circle cx="400" cy="100" r="20" stroke-width='10' fill='#EE4B2B'/>
        <text x="400" y="100" text-anchor="middle" dominant-baseline="central" alignment-baseline="central">+</text>


        <circle cx="100" cy="160" r="20" stroke-width='10' fill='#EE4B2B'/>
        <text x="100" y="160" text-anchor="middle" dominant-baseline="central" alignment-baseline="central">+</text>

        <circle cx="160" cy="160" r="20" stroke-width='10' fill='#EE4B2B'/>
        <text x="160" y="160" text-anchor="middle" dominant-baseline="central" alignment-baseline="central">+</text>

        <circle cx="220" cy="160" r="20" stroke-width='10' fill='#EE4B2B'/>
        <text x="220" y="160" text-anchor="middle" dominant-baseline="central" alignment-baseline="central">+</text>
        
        <circle cx="280" cy="160" r="20" stroke-width='10' fill='#EE4B2B'/>
        <text x="280" y="160" text-anchor="middle" dominant-baseline="central" alignment-baseline="central">+</text>

        <circle cx="340" cy="160" r="20" stroke-width='10' fill='#EE4B2B'/>
        <text x="340" y="160" text-anchor="middle" dominant-baseline="central" alignment-baseline="central">+</text>

        <circle cx="400" cy="160" r="20" stroke-width='10' fill='#EE4B2B'/>
        <text x="400" y="160" text-anchor="middle" dominant-baseline="central" alignment-baseline="central">+</text>


        <circle cx="100" cy="220" r="20" stroke-width='10' fill='#EE4B2B'/>
        <text x="100" y="220" text-anchor="middle" dominant-baseline="central" alignment-baseline="central">+</text>

        <circle cx="160" cy="220" r="20" stroke-width='10' fill='#EE4B2B'/>
        <text x="160" y="220" text-anchor="middle" dominant-baseline="central" alignment-baseline="central">+</text>

        <circle cx="220" cy="220" r="20" stroke-width='10' fill='#EE4B2B'/>
        <text x="220" y="220" text-anchor="middle" dominant-baseline="central" alignment-baseline="central">+</text>
        
        <circle cx="280" cy="220" r="20" stroke-width='10' fill='#EE4B2B'/>
        <text x="280" y="220" text-anchor="middle" dominant-baseline="central" alignment-baseline="central">+</text>

        <circle cx="340" cy="220" r="20" stroke-width='10' fill='#EE4B2B'/>
        <text x="340" y="220" text-anchor="middle" dominant-baseline="central" alignment-baseline="central">+</text>

        <circle cx="400" cy="220" r="20" stroke-width='10' fill='#EE4B2B'/>
        <text x="400" y="220" text-anchor="middle" dominant-baseline="central" alignment-baseline="central">+</text>


        <circle cx="100" cy="280" r="20" stroke-width='10' fill='#EE4B2B'/>
        <text x="100" y="280" text-anchor="middle" dominant-baseline="central" alignment-baseline="central">+</text>

        <circle cx="160" cy="280" r="20" stroke-width='10' fill='#EE4B2B'/>
        <text x="160" y="280" text-anchor="middle" dominant-baseline="central" alignment-baseline="central">+</text>

        <circle cx="220" cy="280" r="20" stroke-width='10' fill='#EE4B2B'/>
        <text x="220" y="280" text-anchor="middle" dominant-baseline="central" alignment-baseline="central">+</text>
        
        <circle cx="280" cy="280" r="20" stroke-width='10' fill='#EE4B2B'/>
        <text x="280" y="280" text-anchor="middle" dominant-baseline="central" alignment-baseline="central">+</text>

        <circle cx="340" cy="280" r="20" stroke-width='10' fill='#EE4B2B'/>
        <text x="340" y="280" text-anchor="middle" dominant-baseline="central" alignment-baseline="central">+</text>

        <circle cx="400" cy="280" r="20" stroke-width='10' fill='#EE4B2B'/>
        <text x="400" y="280" text-anchor="middle" dominant-baseline="central" alignment-baseline="central">+</text>


        <circle cx="100" cy="340" r="20" stroke-width='10' fill='#EE4B2B'/>
        <text x="100" y="340" text-anchor="middle" dominant-baseline="central" alignment-baseline="central">+</text>

        <circle cx="160" cy="340" r="20" stroke-width='10' fill='#EE4B2B'/>
        <text x="160" y="340" text-anchor="middle" dominant-baseline="central" alignment-baseline="central">+</text>

        <circle cx="220" cy="340" r="20" stroke-width='10' fill='#EE4B2B'/>
        <text x="220" y="340" text-anchor="middle" dominant-baseline="central" alignment-baseline="central">+</text>
        
        <circle cx="280" cy="340" r="20" stroke-width='10' fill='#EE4B2B'/>
        <text x="280" y="340" text-anchor="middle" dominant-baseline="central" alignment-baseline="central">+</text>

        <circle cx="340" cy="340" r="20" stroke-width='10' fill='#EE4B2B'/>
        <text x="340" y="340" text-anchor="middle" dominant-baseline="central" alignment-baseline="central">+</text>

        <circle cx="400" cy="340" r="20" stroke-width='10' fill='#EE4B2B'/>
        <text x="400" y="340" text-anchor="middle" dominant-baseline="central" alignment-baseline="central">+</text>


        <circle cx="100" cy="400" r="20" stroke-width='10' fill='#EE4B2B'/>
        <text x="100" y="400" text-anchor="middle" dominant-baseline="central" alignment-baseline="central">+</text>

        <circle cx="160" cy="400" r="20" stroke-width='10' fill='#EE4B2B'/>
        <text x="160" y="400" text-anchor="middle" dominant-baseline="central" alignment-baseline="central">+</text>

        <circle cx="220" cy="400" r="20" stroke-width='10' fill='#EE4B2B'/>
        <text x="220" y="400" text-anchor="middle" dominant-baseline="central" alignment-baseline="central">+</text>
        
        <circle cx="280" cy="400" r="20" stroke-width='10' fill='#EE4B2B'/>
        <text x="280" y="400" text-anchor="middle" dominant-baseline="central" alignment-baseline="central">+</text>

        <circle cx="340" cy="400" r="20" stroke-width='10' fill='#EE4B2B'/>
        <text x="340" y="400" text-anchor="middle" dominant-baseline="central" alignment-baseline="central">+</text>

        <circle cx="400" cy="400" r="20" stroke-width='10' fill='#EE4B2B'/>
        <text x="400" y="400" text-anchor="middle" dominant-baseline="central" alignment-baseline="central">+</text>

        
    </g>
</svg>