<svg xmlns='http://www.w3.org/2000/svg' xmlns:xlink='http://www.w3.org/1999/xlink' viewBox='0 0 150 150' shape-rendering='geometricPrecision' text-rendering='geometricPrecision'>
    <g transform="translate(-10, 10)">
    <circle cx="140" cy="70" r="10" stroke-width='10' fill='#89CFF0'/>
    <text x="140" y="70" text-anchor="middle" dominant-baseline="central" alignment-baseline="central">‒</text>

    <circle cx="80" cy="60" r="10" stroke-width='10' fill='#EE4B2B'/>
    <text x="80" y="60" text-anchor="middle" dominant-baseline="central" alignment-baseline="central">+</text>

    
    <g transform="translate(30, 20) rotate(30)">
        <text x="50" y="40" text-anchor="middle" dominant-baseline="central" alignment-baseline="central" font-size="16" font-family="Arab">O</text>
        <text x="35" y="65" text-anchor="middle" dominant-baseline="central" alignment-baseline="central" font-size="16" font-family="Arab">H</text>
        <text x="65" y="65" text-anchor="middle" dominant-baseline="central" alignment-baseline="central" font-size="16" font-family="Arab">H</text>

        <path d="M 38 57 L 45 45" stroke="black"></path>
        <path d="M 62 57 L 55 45" stroke="black"></path>

        <path d="M 40 35 L 48 30" stroke="black"></path>
        <path d="M 52 30 L 60 35" stroke="black"></path>

        <text x="55" y="25" text-anchor="middle" dominant-baseline="central" alignment-baseline="central" font-size="10" font-family="Arab" fill="#89CFF0">δ</text>
        <text x="50" y="70" text-anchor="middle" dominant-baseline="central" alignment-baseline="central" font-size="10" font-family="Arab" fill="#EE4B2B">δ</text>

        <g transform="translate(4, -3)">
            <text x="55" y="25" text-anchor="middle" dominant-baseline="central" alignment-baseline="central" font-size="6" font-family="Arab" fill="#89CFF0">‒</text>
            <text x="50" y="70" text-anchor="middle" dominant-baseline="central" alignment-baseline="central" font-size="6" font-family="Arab" fill="#EE4B2B">+</text>
        </g>
    </g>

    <g transform="translate(105, 100) rotate(-130)">
        <text x="50" y="40" text-anchor="middle" dominant-baseline="central" alignment-baseline="central" font-size="16" font-family="Arab">O</text>
        <text x="35" y="65" text-anchor="middle" dominant-baseline="central" alignment-baseline="central" font-size="16" font-family="Arab">H</text>
        <text x="65" y="65" text-anchor="middle" dominant-baseline="central" alignment-baseline="central" font-size="16" font-family="Arab">H</text>

        <path d="M 38 57 L 45 45" stroke="black"></path>
        <path d="M 62 57 L 55 45" stroke="black"></path>

        <path d="M 40 35 L 48 30" stroke="black"></path>
        <path d="M 52 30 L 60 35" stroke="black"></path>

        <text x="55" y="25" text-anchor="middle" dominant-baseline="central" alignment-baseline="central" font-size="10" font-family="Arab" fill="#89CFF0">δ</text>
        <text x="50" y="70" text-anchor="middle" dominant-baseline="central" alignment-baseline="central" font-size="10" font-family="Arab" fill="#EE4B2B">δ</text>

        <g transform="translate(4, -3)">
            <text x="55" y="25" text-anchor="middle" dominant-baseline="central" alignment-baseline="central" font-size="6" font-family="Arab" fill="#89CFF0">‒</text>
            <text x="50" y="70" text-anchor="middle" dominant-baseline="central" alignment-baseline="central" font-size="6" font-family="Arab" fill="#EE4B2B">+</text>
        </g>
    </g>

    <g transform="translate(35, 80) rotate(-30)">
        <text x="50" y="40" text-anchor="middle" dominant-baseline="central" alignment-baseline="central" font-size="16" font-family="Arab">O</text>
        <text x="35" y="65" text-anchor="middle" dominant-baseline="central" alignment-baseline="central" font-size="16" font-family="Arab">H</text>
        <text x="65" y="65" text-anchor="middle" dominant-baseline="central" alignment-baseline="central" font-size="16" font-family="Arab">H</text>

        <path d="M 38 57 L 45 45" stroke="black"></path>
        <path d="M 62 57 L 55 45" stroke="black"></path>

        <path d="M 40 35 L 48 30" stroke="black"></path>
        <path d="M 52 30 L 60 35" stroke="black"></path>

        <text x="55" y="25" text-anchor="middle" dominant-baseline="central" alignment-baseline="central" font-size="10" font-family="Arab" fill="#89CFF0">δ</text>
        <text x="50" y="70" text-anchor="middle" dominant-baseline="central" alignment-baseline="central" font-size="10" font-family="Arab" fill="#EE4B2B">δ</text>

        <g transform="translate(4, -3)">
            <text x="55" y="25" text-anchor="middle" dominant-baseline="central" alignment-baseline="central" font-size="6" font-family="Arab" fill="#89CFF0">‒</text>
            <text x="50" y="70" text-anchor="middle" dominant-baseline="central" alignment-baseline="central" font-size="6" font-family="Arab" fill="#EE4B2B">+</text>
        </g>
    </g>

    <path d="M 57 67 L 66 63" stroke="black" stroke-dasharray="2 2"></path>
    <path d="M 87 70 L 90 80" stroke="black" stroke-dasharray="2 2"></path>
    <path d="M 95 47 L 90 52" stroke="black" stroke-dasharray="2 2"></path>
    <path d="M 135 40 L 138 58" stroke="black" stroke-dasharray="2 2"></path>
    <path d="M 130 100 L 138 83" stroke="black" stroke-dasharray="2 2"></path>
    
    </g>
</svg>